<?xml version="1.0" standalone="no"?>
<!DOCTYPE svg PUBLIC "-//W3C//DTD SVG 20010904//EN"
 "http://www.w3.org/TR/2001/REC-SVG-20010904/DTD/svg10.dtd">
<svg version="1.0" xmlns="http://www.w3.org/2000/svg"
 width="16.000000pt" height="16.000000pt" viewBox="0 0 16.000000 16.000000"
 preserveAspectRatio="xMidYMid meet">
<metadata>
Created by potrace 1.11, written by Peter Selinger 2001-2013
</metadata>
<g transform="translate(0.000000,16.000000) scale(0.009756,-0.009756)"
fill="#000000" stroke="none">
<path d="M512 1538 c22 -46 39 -85 38 -87 -1 -2 3 -7 8 -10 5 -3 24 -37 43
-76 19 -38 38 -73 43 -76 5 -4 6 -14 3 -22 -4 -10 -1 -14 7 -11 7 3 18 -10 26
-30 13 -34 54 -66 67 -52 11 10 -16 75 -53 128 -19 26 -34 52 -34 58 0 5 -3
10 -7 10 -5 0 -26 28 -48 63 -22 34 -42 64 -45 67 -3 3 -22 31 -43 63 -20 31
-39 57 -41 57 -2 0 15 -37 36 -82z"/>
<path d="M937 1483 c-12 -27 -25 -49 -29 -51 -5 -2 -8 -9 -8 -15 0 -7 -9 -31
-20 -55 -10 -23 -19 -43 -18 -45 1 -1 -5 -13 -12 -27 -8 -14 -15 -28 -16 -32
-1 -5 -3 -9 -4 -10 -1 -2 -3 -20 -4 -40 -2 -32 0 -35 15 -28 9 5 20 6 24 2 5
-4 5 -2 2 5 -4 6 1 19 10 29 10 10 17 19 16 21 -2 2 -3 12 -3 24 0 16 4 20 18
14 13 -5 14 -3 5 6 -9 9 -8 22 2 57 8 25 13 48 13 51 -1 3 4 24 10 46 6 22 12
45 13 50 0 6 5 18 10 28 5 9 7 17 4 17 -3 0 -15 -21 -28 -47z"/>
<path d="M1269 1357 c-36 -18 -98 -47 -137 -65 -40 -19 -74 -38 -78 -43 -3 -5
-9 -7 -14 -4 -4 3 -13 -2 -20 -10 -7 -8 -17 -15 -22 -15 -6 0 -22 -9 -38 -20
-15 -11 -29 -18 -31 -17 -2 2 -14 -7 -26 -20 l-22 -23 31 -16 c16 -9 28 -11
24 -6 -3 5 6 14 19 20 13 6 59 34 100 62 42 27 80 50 84 50 4 0 16 9 26 20 10
11 22 17 26 14 5 -3 12 2 15 10 3 9 10 13 15 10 5 -3 9 -1 9 4 0 5 12 15 28
23 39 20 96 59 86 58 -5 0 -39 -15 -75 -32z"/>
<path d="M812 1300 c0 -14 2 -19 5 -12 2 6 2 18 0 25 -3 6 -5 1 -5 -13z"/>
<path d="M779 1263 c-1 -5 -3 -27 -3 -50 -1 -23 -9 -49 -16 -58 -17 -20 -22
-40 -21 -79 0 -19 -8 -37 -24 -52 -14 -13 -23 -29 -20 -36 16 -46 28 -181 16
-173 -5 3 -7 -4 -4 -14 4 -16 0 -20 -18 -19 -13 1 -29 6 -36 10 -8 6 -16 2
-23 -13 -8 -14 -8 -19 -1 -15 7 5 10 -3 7 -23 -2 -17 0 -28 5 -25 14 9 21 -41
15 -118 -3 -40 -5 -95 -5 -121 -1 -36 -4 -46 -13 -41 -10 6 -10 4 0 -7 6 -7
12 -17 12 -22 0 -4 -6 -5 -12 -1 -9 5 -9 2 1 -9 11 -14 11 -17 0 -17 -12 0
-12 -2 0 -9 8 -5 10 -14 6 -21 -5 -7 -7 -30 -7 -51 2 -42 -1 -46 -48 -54 -18
-3 -37 -8 -41 -10 -4 -3 -10 2 -13 11 -3 8 -10 12 -16 9 -5 -3 -10 -2 -10 3 0
5 -12 7 -27 5 -16 -2 -33 -5 -38 -5 -6 -1 -16 -7 -23 -15 -10 -10 -9 -13 5
-13 17 -1 17 -2 -1 -15 -14 -10 -15 -15 -6 -15 10 0 11 -3 3 -11 -14 -14 -6
-39 14 -39 8 0 12 -4 9 -8 -3 -5 14 -7 38 -5 51 5 100 -11 90 -29 -5 -10 -4
-10 6 -1 12 11 44 7 36 -6 -2 -3 6 -7 19 -7 13 -1 38 -9 56 -18 18 -9 39 -16
47 -16 8 0 12 -6 9 -14 -4 -10 0 -12 15 -8 12 3 19 1 15 -4 -3 -5 15 -8 41 -6
70 4 72 5 72 15 0 5 7 7 14 4 9 -4 13 -1 10 6 -5 15 91 51 108 41 6 -4 8 -3 5
3 -10 16 18 24 32 10 9 -9 10 -7 5 8 -7 17 -6 18 8 7 10 -8 18 -9 22 -3 4 6
14 7 23 4 11 -4 14 -3 9 5 -4 7 -1 12 9 12 11 0 15 5 11 15 -3 8 3 19 12 25
15 11 15 11 -2 6 -13 -5 -17 -2 -12 9 3 8 1 15 -4 15 -5 0 -7 6 -4 14 4 9 -6
16 -30 20 -42 8 -88 -2 -79 -17 4 -6 0 -8 -10 -4 -8 3 -31 9 -50 12 -29 6 -34
11 -35 36 0 19 3 27 10 23 6 -4 4 3 -5 16 -12 17 -14 28 -6 43 6 11 7 17 2 14
-4 -3 -8 27 -7 66 0 40 -3 84 -7 98 -4 14 -2 33 3 42 6 12 5 17 -4 17 -9 0 -9
3 2 10 12 8 12 10 1 10 -11 0 -9 5 5 22 15 19 16 20 2 9 -15 -11 -18 -11 -18
1 0 8 3 18 7 22 4 3 8 14 9 24 2 9 8 18 13 20 18 6 13 19 -9 25 -11 3 -20 10
-20 17 0 6 5 8 12 4 7 -5 8 -3 4 5 -5 7 -10 10 -13 7 -6 -5 -43 37 -43 49 0 3
6 3 13 -2 6 -4 5 4 -5 19 -20 30 -17 130 5 166 5 7 4 12 -2 12 -6 0 -11 7 -11
16 0 8 -4 13 -9 10 -13 -9 -34 22 -27 39 3 9 -5 37 -17 64 -15 29 -21 55 -17
67 4 10 2 22 -4 26 -8 6 -7 8 2 8 6 0 12 7 12 15 0 15 -29 22 -31 8z m-12
-210 c-3 -10 -5 -2 -5 17 0 19 2 27 5 18 2 -10 2 -26 0 -35z m43 28 c0 -11 -4
-23 -10 -26 -6 -4 -10 5 -10 19 0 14 5 26 10 26 6 0 10 -9 10 -19z m-18 -170
c1 -53 -2 -75 -13 -82 -26 -16 -29 -9 -29 66 0 60 3 76 17 84 10 5 19 8 21 7
1 -2 3 -36 4 -75z m14 -193 c5 -7 2 -8 -6 -3 -10 6 -10 4 1 -12 18 -27 15
-248 -4 -236 -9 5 -9 3 -1 -8 15 -19 16 -79 1 -79 -8 0 -8 -3 -2 -8 15 -11 18
-42 3 -42 -9 0 -9 -3 0 -12 14 -14 16 -32 4 -24 -5 3 -9 -1 -9 -9 0 -8 4 -12
9 -9 4 3 7 -6 6 -20 -2 -18 -8 -26 -21 -26 -10 0 -16 4 -13 9 3 4 -6 6 -19 3
-14 -2 -25 0 -25 5 0 5 -10 9 -22 9 -14 -1 -24 6 -26 18 -3 14 0 17 12 13 14
-5 16 3 16 54 0 45 3 58 13 53 9 -6 9 -4 1 7 -9 11 -12 100 -4 119 1 3 2 35 2
73 0 43 4 67 12 67 6 0 22 3 35 7 21 5 23 3 19 -15 -4 -12 -2 -22 4 -22 5 0 8
12 6 28 -2 16 -9 27 -18 26 -25 -1 -70 -16 -71 -23 0 -3 -2 -67 -5 -141 -7
-196 -9 -213 -24 -218 -7 -3 -10 0 -6 7 4 6 10 84 13 174 3 89 6 173 7 187 2
38 94 77 112 48z m-166 -506 c0 -5 24 -16 53 -25 58 -19 84 -33 76 -41 -8 -8
-159 54 -159 65 0 5 7 9 15 9 8 0 15 -4 15 -8z m230 -48 c0 -2 -17 -4 -37 -3
-29 0 -33 2 -18 8 18 7 55 4 55 -5z m-25 -55 c-3 -51 -14 -63 -46 -50 l-24 10
27 0 c21 1 27 6 27 24 1 49 3 57 10 57 5 0 7 -18 6 -41z"/>
<path d="M374 1181 c4 -6 16 -11 27 -11 13 0 18 -4 13 -12 -4 -7 -3 -8 4 -4 6
4 27 0 46 -8 19 -8 38 -11 42 -8 4 4 4 -2 0 -12 -5 -16 -4 -17 8 -6 13 10 21
8 47 -11 18 -13 29 -18 25 -11 -4 7 -1 12 8 12 9 0 16 -5 16 -11 0 -5 5 -7 10
-4 6 3 10 2 10 -2 0 -5 15 -7 34 -5 23 3 36 10 39 23 3 12 0 19 -9 19 -8 0
-14 4 -14 10 0 5 -7 7 -15 4 -8 -4 -15 -2 -15 2 0 5 -15 9 -32 10 -72 2 -79 4
-72 17 6 9 5 9 -8 0 -8 -7 -17 -11 -19 -9 -2 3 -29 7 -59 11 -30 3 -63 8 -74
11 -12 4 -16 2 -12 -5z"/>
<path d="M896 1067 c1 -12 3 -25 3 -28 1 -6 41 -21 66 -24 6 0 9 -6 8 -13 -2
-7 2 -12 7 -12 6 0 10 5 10 11 0 7 14 8 38 5 20 -3 57 -9 82 -12 25 -3 64 -10
87 -14 24 -4 40 -3 37 1 -3 5 -13 9 -23 9 -10 0 -21 3 -25 8 -4 4 -11 7 -14 7
-4 1 -17 6 -29 13 -13 7 -23 10 -23 7 0 -3 -16 1 -35 9 -19 8 -35 12 -35 9 0
-3 -7 0 -15 7 -8 7 -15 9 -15 6 0 -4 -9 -2 -20 4 -11 6 -17 16 -14 22 4 7 3 8
-5 4 -6 -4 -9 -12 -6 -17 4 -5 -3 -5 -18 0 -14 6 -28 7 -31 4 -3 -3 -12 -1
-19 5 -11 9 -13 7 -11 -11z"/>
<path d="M645 1039 c5 -7 -55 -35 -68 -31 -5 1 -6 -2 -3 -7 6 -8 -8 -18 -28
-19 -5 0 -12 -4 -15 -9 -16 -23 -81 -64 -92 -57 -7 4 -9 3 -6 -3 4 -6 -22 -30
-58 -53 -36 -24 -64 -44 -62 -46 2 -2 31 10 66 27 53 26 65 28 79 17 15 -11
15 -11 4 3 -11 14 -6 19 40 40 29 13 59 23 65 22 7 0 11 3 8 7 -6 11 44 31 58
24 7 -4 9 -4 6 0 -4 4 6 20 22 36 27 27 40 58 19 45 -5 -3 -10 -2 -10 3 0 5
-7 9 -15 9 -8 0 -12 -4 -10 -8z"/>
<path d="M897 963 c-24 -38 -15 -70 44 -152 60 -84 68 -98 47 -85 -7 4 -8 3
-4 -5 4 -6 11 -9 16 -6 5 3 14 -4 21 -17 14 -26 49 -65 49 -55 0 4 -7 19 -16
32 -9 13 -12 30 -8 36 4 8 3 9 -4 5 -11 -6 -16 6 -13 27 0 4 -3 7 -8 7 -8 0
-24 37 -22 53 1 4 -4 7 -10 7 -5 0 -7 5 -4 10 3 6 2 10 -3 10 -4 0 -19 21 -32
48 -13 26 -27 49 -31 52 -3 3 -8 14 -11 25 -2 14 -6 16 -11 8z"/>
</g>
</svg>
