<?xml version="1.0" encoding="utf-8"?>
<!-- Generator: Adobe Illustrator 16.0.0, SVG Export Plug-In . SVG Version: 6.00 Build 0)  -->
<!DOCTYPE svg PUBLIC "-//W3C//DTD SVG 1.0//EN" "http://www.w3.org/TR/2001/REC-SVG-20010904/DTD/svg10.dtd">
<svg version="1.0" id="Layer_1" xmlns="http://www.w3.org/2000/svg" xmlns:xlink="http://www.w3.org/1999/xlink" x="0px" y="0px"
	 width="64px" height="64px" viewBox="0 0 64 64" enable-background="new 0 0 64 64" xml:space="preserve">
<g>
	<path fill="#231F20" d="M44,0c-5.523,0-10.523,2.238-14.141,5.859l-24,24C2.238,33.477,0,38.477,0,44c0,11.047,8.953,20,20,20
		c5.523,0,10.523-2.238,14.141-5.859l24-24C61.762,30.523,64,25.523,64,20C64,8.953,55.047,0,44,0z M28.566,9.98L54.02,35.434
		L35.434,54.02L9.98,28.566L28.566,9.98z M20,62c-9.925,0-18-8.074-18-18c0-4.81,1.873-9.329,5.273-12.727l1.293-1.293L34.02,55.434
		l-1.294,1.294C29.329,60.127,24.81,62,20,62z M56.727,32.727l-1.293,1.293L29.98,8.566l1.294-1.294C34.671,3.873,39.19,2,44,2
		c9.925,0,18,8.074,18,18C62,24.81,60.127,29.329,56.727,32.727z"/>
	<path fill="#231F20" d="M29,32c0,1.656,1.344,3,3,3s3-1.344,3-3s-1.344-3-3-3S29,30.344,29,32z M33,32c0,0.553-0.447,1-1,1
		s-1-0.447-1-1s0.447-1,1-1S33,31.447,33,32z"/>
	<path fill="#231F20" d="M30,24c1.656,0,3-1.344,3-3s-1.344-3-3-3s-3,1.344-3,3S28.344,24,30,24z M30,20c0.553,0,1,0.447,1,1
		s-0.447,1-1,1s-1-0.447-1-1S29.447,20,30,20z"/>
	<path fill="#231F20" d="M31,43c0,1.656,1.344,3,3,3s3-1.344,3-3s-1.344-3-3-3S31,41.344,31,43z M35,43c0,0.553-0.447,1-1,1
		s-1-0.447-1-1s0.447-1,1-1S35,42.447,35,43z"/>
	<path fill="#231F20" d="M43,37c1.656,0,3-1.344,3-3s-1.344-3-3-3s-3,1.344-3,3S41.344,37,43,37z M43,33c0.553,0,1,0.447,1,1
		s-0.447,1-1,1s-1-0.447-1-1S42.447,33,43,33z"/>
	<path fill="#231F20" d="M21,33c1.656,0,3-1.344,3-3s-1.344-3-3-3s-3,1.344-3,3S19.344,33,21,33z M21,29c0.553,0,1,0.447,1,1
		s-0.447,1-1,1s-1-0.447-1-1S20.447,29,21,29z"/>
</g>
</svg>
