<?xml version="1.0" encoding="utf-8"?>
<!-- Generator: Adobe Illustrator 16.0.0, SVG Export Plug-In . SVG Version: 6.00 Build 0)  -->
<!DOCTYPE svg PUBLIC "-//W3C//DTD SVG 1.0//EN" "http://www.w3.org/TR/2001/REC-SVG-20010904/DTD/svg10.dtd">
<svg version="1.0" id="Layer_1" xmlns="http://www.w3.org/2000/svg" xmlns:xlink="http://www.w3.org/1999/xlink" x="0px" y="0px"
	 width="64px" height="64px" viewBox="0 0 64 64" enable-background="new 0 0 64 64" xml:space="preserve">
<path fill="#231F20" d="M54.627,9.373c-12.496-12.495-32.758-12.495-45.254,0c-12.497,12.496-12.497,32.758,0,45.255
	c12.496,12.496,32.758,12.496,45.254,0C67.124,42.131,67.124,21.869,54.627,9.373z M53.213,10.787
	c4.428,4.428,7.179,9.895,8.261,15.615c-9.549-0.729-19.344,2.539-26.646,9.84c-1.283,1.283-2.437,2.646-3.471,4.066
	c-2.487-1.862-4.873-3.926-7.136-6.188c-0.568-0.568-1.106-1.156-1.648-1.74c1.785-2.346,3.748-4.602,5.892-6.744
	c7.077-7.078,15.369-12.184,24.198-15.373C52.847,10.438,53.033,10.606,53.213,10.787z M50.973,8.76
	c-8.719,3.308-16.901,8.44-23.922,15.462c-2.117,2.117-4.065,4.34-5.845,6.65c-2.224-2.542-4.227-5.21-5.993-7.985
	c4.333-5.684,6.633-12.416,6.904-19.218C31.742,0.319,42.732,2.016,50.973,8.76z M10.787,10.787
	c2.755-2.756,5.915-4.854,9.285-6.312c-0.395,5.848-2.387,11.605-5.978,16.566c-1.728-2.922-3.208-5.945-4.448-9.047
	C10.014,11.585,10.393,11.182,10.787,10.787z M8.193,13.755c1.291,3.084,2.818,6.087,4.582,8.989
	c-0.625,0.75-1.285,1.481-1.988,2.185c-2.626,2.626-5.599,4.687-8.766,6.208C2.196,24.985,4.254,18.882,8.193,13.755z M2.031,33.34
	c3.688-1.646,7.145-3.972,10.17-6.996c0.588-0.589,1.142-1.199,1.678-1.819c1.809,2.778,3.848,5.447,6.104,7.993
	c-4.463,6.175-7.752,12.933-9.889,19.967C5.03,47.076,2.34,40.253,2.031,33.34z M11.712,54.093
	c2.021-7.069,5.231-13.87,9.654-20.074c0.479,0.507,0.945,1.021,1.441,1.517c2.351,2.352,4.832,4.487,7.419,6.422
	c-3.73,5.818-5.498,12.526-5.329,19.193C20.114,59.99,15.563,57.635,11.712,54.093z M53.213,53.213
	c-7.156,7.157-17.028,9.934-26.299,8.347c-0.253-6.388,1.382-12.835,4.933-18.423c6.625,4.654,13.896,7.979,21.445,9.994
	C53.265,53.157,53.24,53.187,53.213,53.213z M32.979,41.482c0.974-1.337,2.057-2.619,3.263-3.826
	c6.99-6.989,16.407-10.049,25.538-9.219c0.961,8.076-1.356,16.463-6.953,23.016C47.13,49.531,39.712,46.213,32.979,41.482z"/>
</svg>
