<?xml version="1.0" encoding="utf-8"?>
<!-- Generator: Adobe Illustrator 16.0.0, SVG Export Plug-In . SVG Version: 6.00 Build 0)  -->
<!DOCTYPE svg PUBLIC "-//W3C//DTD SVG 1.0//EN" "http://www.w3.org/TR/2001/REC-SVG-20010904/DTD/svg10.dtd">
<svg version="1.0" id="Layer_1" xmlns="http://www.w3.org/2000/svg" xmlns:xlink="http://www.w3.org/1999/xlink" x="0px" y="0px"
	 width="64px" height="64px" viewBox="0 0 64 64" enable-background="new 0 0 64 64" xml:space="preserve">
<g>
	<path fill="#231F20" d="M38,19.997c-0.553,0-1,0.447-1,1v26c0,0.553,0.447,1,1,1s1-0.447,1-1v-26
		C39,20.444,38.553,19.997,38,19.997z"/>
	<path fill="#231F20" d="M48,19.997c-0.553,0-1,0.447-1,1v26c0,0.553,0.447,1,1,1s1-0.447,1-1v-26
		C49,20.444,48.553,19.997,48,19.997z"/>
	<path fill="#231F20" d="M28,19.997c-0.553,0-1,0.447-1,1v26c0,0.553,0.447,1,1,1s1-0.447,1-1v-26
		C29,20.444,28.553,19.997,28,19.997z"/>
	<path fill="#231F20" d="M64,7.997c0-4.418-3.582-8-8-8c-2.386,0-4.521,1.051-5.987,2.707C48.939,1.074,47.097-0.003,45-0.003
		c-1.93,0-3.642,0.914-4.739,2.33c-0.717-0.212-1.475-0.33-2.261-0.33c-1.618,0-3.121,0.484-4.38,1.311
		C32.175,1.88,30.191,0.997,28,0.997c-2.113,0-4.029,0.826-5.459,2.164C21.548,2.433,20.326,1.997,19,1.997c-3.313,0-6,2.687-6,6
		c0,1.539,0.584,2.938,1.537,4H4c-2.211,0-4,1.789-4,4v30c0,2.211,1.789,4,4,4h12V60c0,2.211,1.789,4,4,4h36c2.211,0,4-1.789,4-4
		V14.919C62.389,13.534,64,10.956,64,7.997z M16,41.997H8v-22h8V41.997z M16,17.997H7c-0.553,0-1,0.447-1,1v24c0,0.553,0.447,1,1,1
		h9v4H4c-1.104,0-2-0.896-2-2v-30c0-1.104,0.896-2,2-2h12V17.997z M58,60c0,1.104-0.896,2-2,2H20c-1.104,0-2-0.896-2-2v-4h40V60z
		 M58,15.997V54H18V13.907c0.326,0.055,0.658,0.09,1,0.09c0.85,0,1.656-0.179,2.389-0.497c1.44,2.11,3.863,3.497,6.611,3.497
		c1.618,0,3.121-0.484,4.38-1.311c1.445,1.428,3.429,2.311,5.62,2.311c2.113,0,4.029-0.826,5.459-2.164
		c0.993,0.729,2.215,1.164,3.541,1.164c1.901,0,3.593-0.887,4.691-2.267c1.245,0.798,2.721,1.267,4.309,1.267
		c0.819,0,1.609-0.123,2.354-0.354L58,15.997z M56,13.997c-1.237,0-2.387-0.375-3.343-1.018c-0.671-0.451-1.242-1.036-1.685-1.714
		c-0.055,0.819-0.352,1.563-0.825,2.173c-0.731,0.941-1.862,1.559-3.147,1.559c-0.839,0-1.616-0.261-2.26-0.703
		c-0.594-0.407-1.065-0.975-1.369-1.635c-0.328,0.659-0.772,1.249-1.309,1.743c-1.069,0.987-2.493,1.595-4.062,1.595
		c-1.583,0-3.02-0.618-4.092-1.619c-0.498-0.467-0.917-1.014-1.233-1.625c-0.429,0.533-0.948,0.987-1.532,1.348
		c-0.915,0.564-1.989,0.896-3.143,0.896c-2.048,0-3.854-1.028-4.937-2.595c-0.412-0.596-0.715-1.271-0.89-1.995
		c-0.437,0.572-1.015,1.027-1.693,1.299c-0.459,0.184-0.956,0.291-1.48,0.291c-2.209,0-4-1.791-4-4s1.791-4,4-4
		c0.839,0,1.616,0.261,2.26,0.703c0.594,0.407,1.065,0.975,1.369,1.637c0.327-0.662,0.771-1.25,1.308-1.746
		C25.006,3.604,26.431,2.997,28,2.997c1.583,0,3.02,0.617,4.092,1.62c0.498,0.466,0.917,1.013,1.233,1.623
		c0.429-0.532,0.948-0.987,1.532-1.348C35.772,4.328,36.846,3.997,38,3.997c0.445,0,0.878,0.053,1.296,0.145
		c0.675,0.148,1.305,0.412,1.873,0.768c0.188-0.66,0.524-1.259,0.996-1.732c0.725-0.729,1.727-1.18,2.835-1.18
		c1.729,0,3.188,1.104,3.747,2.641c0.08,0.221,0.145,0.449,0.185,0.684c0.503,0.171,0.978,0.402,1.41,0.693
		c0.143-0.406,0.326-0.79,0.548-1.15c1.056-1.718,2.946-2.867,5.11-2.867c3.313,0,6,2.686,6,6C62,11.31,59.313,13.997,56,13.997z"/>
</g>
</svg>
