<?xml version="1.0" encoding="utf-8"?>
<!-- Generator: Adobe Illustrator 16.0.0, SVG Export Plug-In . SVG Version: 6.00 Build 0)  -->
<!DOCTYPE svg PUBLIC "-//W3C//DTD SVG 1.0//EN" "http://www.w3.org/TR/2001/REC-SVG-20010904/DTD/svg10.dtd">
<svg version="1.0" id="Layer_1" xmlns="http://www.w3.org/2000/svg" xmlns:xlink="http://www.w3.org/1999/xlink" x="0px" y="0px"
	 width="64px" height="64px" viewBox="0 0 64 64" enable-background="new 0 0 64 64" xml:space="preserve">
<g>
	<path fill="#ffffff" d="M24.008,32.038L9.541,27.904c-0.527-0.146-1.084,0.155-1.236,0.688c-0.151,0.53,0.156,1.084,0.688,1.236
		l14.467,4.134C23.551,33.987,23.643,34,23.734,34c0.435,0,0.835-0.286,0.961-0.726C24.847,32.744,24.539,32.19,24.008,32.038z"/>
	<path fill="#ffffff" d="M24.008,39.038L9.541,34.905c-0.527-0.146-1.084,0.155-1.236,0.688c-0.151,0.531,0.156,1.084,0.688,1.236
		l14.467,4.133C23.551,40.987,23.643,41,23.734,41c0.435,0,0.835-0.286,0.961-0.726C24.847,39.743,24.539,39.19,24.008,39.038z"/>
	<path fill="#ffffff" d="M24.008,25.038L9.541,20.904c-0.527-0.146-1.084,0.155-1.236,0.688c-0.151,0.53,0.156,1.084,0.688,1.236
		l14.467,4.134C23.551,26.987,23.643,27,23.734,27c0.435,0,0.835-0.286,0.961-0.726C24.847,25.744,24.539,25.19,24.008,25.038z"/>
	<path fill="#ffffff" d="M24.008,18.038L9.541,13.904c-0.527-0.146-1.084,0.155-1.236,0.688c-0.151,0.53,0.156,1.084,0.688,1.236
		l14.467,4.134C23.551,19.987,23.643,20,23.734,20c0.435,0,0.835-0.286,0.961-0.726C24.847,18.744,24.539,18.19,24.008,18.038z"/>
	<path fill="#ffffff" d="M39.963,33.962c0.092,0,0.184-0.013,0.275-0.038l14.467-4.134c0.531-0.152,0.839-0.706,0.688-1.236
		c-0.152-0.532-0.708-0.832-1.236-0.688L39.689,32c-0.531,0.152-0.839,0.706-0.688,1.236C39.128,33.676,39.528,33.962,39.963,33.962
		z"/>
	<path fill="#ffffff" d="M54.459,34.905l-14.467,4.133c-0.531,0.152-0.839,0.705-0.688,1.236C39.431,40.714,39.831,41,40.266,41
		c0.092,0,0.184-0.013,0.275-0.038l14.467-4.133c0.531-0.152,0.839-0.705,0.688-1.236C55.543,35.061,54.987,34.761,54.459,34.905z"
		/>
	<path fill="#ffffff" d="M54.459,20.904l-14.467,4.134c-0.531,0.152-0.839,0.706-0.688,1.236C39.431,26.714,39.831,27,40.266,27
		c0.092,0,0.184-0.013,0.275-0.038l14.467-4.134c0.531-0.152,0.839-0.706,0.688-1.236C55.543,21.06,54.987,20.758,54.459,20.904z"/>
	<path fill="#ffffff" d="M54.459,13.904l-14.467,4.134c-0.531,0.152-0.839,0.706-0.688,1.236C39.431,19.714,39.831,20,40.266,20
		c0.092,0,0.184-0.013,0.275-0.038l14.467-4.134c0.531-0.152,0.839-0.706,0.688-1.236C55.543,14.06,54.987,13.76,54.459,13.904z"/>
	<path fill="#ffffff" d="M63.219,0.414c-0.354-0.271-0.784-0.413-1.221-0.413c-0.172,0-0.345,0.022-0.514,0.066L32,7.93L2.516,0.067
		c-0.17-0.045-0.343-0.066-0.515-0.066c-0.437,0-0.866,0.142-1.22,0.413C0.289,0.793,0,1.379,0,2v49.999
		c0,0.906,0.609,1.699,1.484,1.933l25.873,6.899C28.089,62.685,29.887,64,32,64s3.911-1.315,4.643-3.169l25.873-6.899
		C63.391,53.698,64,52.905,64,51.999V2C64,1.379,63.711,0.793,63.219,0.414z M32,54c0.173,0,0.347-0.022,0.516-0.067L62,46.07v1.954
		l-30,7.941L2,48.024V46.07l29.484,7.862C31.653,53.978,31.827,54,32,54z M1.998,2.001c0,0,0.001,0,0.003,0V2L31,9.733v42L2,44
		L1.998,2.001z M34.979,59.205c-0.079,1.143-0.785,2.111-1.788,2.546l-0.676,0.181c-0.169,0.045-0.343,0.067-0.516,0.067
		s-0.347-0.022-0.516-0.067l-0.676-0.181c-1.003-0.435-1.709-1.403-1.788-2.546L2,51.999v-1.906l29.744,7.874
		C31.828,57.989,31.914,58,32,58s0.172-0.011,0.256-0.033L62,50.093v1.906L34.979,59.205z M33,51.733v-42L62,2v42L33,51.733z"/>
</g>
</svg>
