<?xml version="1.0" encoding="utf-8"?>
<!-- Generator: Adobe Illustrator 16.0.0, SVG Export Plug-In . SVG Version: 6.00 Build 0)  -->
<!DOCTYPE svg PUBLIC "-//W3C//DTD SVG 1.0//EN" "http://www.w3.org/TR/2001/REC-SVG-20010904/DTD/svg10.dtd">
<svg version="1.0" id="Layer_1" xmlns="http://www.w3.org/2000/svg" xmlns:xlink="http://www.w3.org/1999/xlink" x="0px" y="0px"
	 width="64px" height="64px" viewBox="0 0 64 64" enable-background="new 0 0 64 64" xml:space="preserve">
<g>
	<path fill="#231F20" d="M60,52V4c0-2.211-1.789-4-4-4H8C5.789,0,4,1.789,4,4v54c0,3.313,2.687,6,6,6h49c0.553,0,1-0.447,1-1
		s-0.447-1-1-1h-1v-8C59.104,54,60,53.104,60,52z M6,4c0-1.104,0.896-2,2-2h4v50h-2c-1.539,0-2.938,0.584-4,1.537V4z M56,62H10
		c-2.209,0-4-1.791-4-4s1.791-4,4-4h46V62z M14,52V2h42c1.104,0,2,0.896,2,2v48H14z"/>
	<path fill="#231F20" d="M42,26H23c-0.553,0-1,0.447-1,1s0.447,1,1,1h19c0.553,0,1-0.447,1-1S42.553,26,42,26z"/>
	<path fill="#231F20" d="M49,20H23c-0.553,0-1,0.447-1,1s0.447,1,1,1h26c0.553,0,1-0.447,1-1S49.553,20,49,20z"/>
	<path fill="#231F20" d="M23,16h12c0.553,0,1-0.447,1-1s-0.447-1-1-1H23c-0.553,0-1,0.447-1,1S22.447,16,23,16z"/>
</g>
</svg>
