<?xml version="1.0" encoding="utf-8"?>
<!-- Generator: Adobe Illustrator 16.0.0, SVG Export Plug-In . SVG Version: 6.00 Build 0)  -->
<!DOCTYPE svg PUBLIC "-//W3C//DTD SVG 1.0//EN" "http://www.w3.org/TR/2001/REC-SVG-20010904/DTD/svg10.dtd">
<svg version="1.0" id="Layer_1" xmlns="http://www.w3.org/2000/svg" xmlns:xlink="http://www.w3.org/1999/xlink" x="0px" y="0px"
	 width="64px" height="64px" viewBox="0 0 64 64" enable-background="new 0 0 64 64" xml:space="preserve">
<path fill="#231F20" d="M60,13H48V4c0-2.211-1.789-4-4-4H20c-2.211,0-4,1.789-4,4v9H4c-2.211,0-4,1.789-4,4v43c0,2.211,1.789,4,4,4
	h56c2.211,0,4-1.789,4-4V17C64,14.789,62.211,13,60,13z M18,4c0-1.104,0.896-2,2-2h24c1.104,0,2,0.896,2,2v9h-2V5
	c0-0.553-0.447-1-1-1H21c-0.553,0-1,0.447-1,1v8h-2V4z M42,6v7H22V6H42z M62,60c0,1.104-0.896,2-2,2H4c-1.104,0-2-0.896-2-2V42h10v5
	c0,0.553,0.447,1,1,1h6c0.553,0,1-0.447,1-1v-5h24v5c0,0.553,0.447,1,1,1h6c0.553,0,1-0.447,1-1v-5h10V60z M14,46V36h4v10H14z
	 M46,46V36h4v10H46z M62,40H52v-5c0-0.553-0.447-1-1-1h-6c-0.553,0-1,0.447-1,1v5H20v-5c0-0.553-0.447-1-1-1h-6
	c-0.553,0-1,0.447-1,1v5H2V17c0-1.104,0.896-2,2-2h56c1.104,0,2,0.896,2,2V40z"/>
</svg>
