<?xml version="1.0" encoding="utf-8"?>
<!-- Generator: Adobe Illustrator 16.0.0, SVG Export Plug-In . SVG Version: 6.00 Build 0)  -->
<!DOCTYPE svg PUBLIC "-//W3C//DTD SVG 1.0//EN" "http://www.w3.org/TR/2001/REC-SVG-20010904/DTD/svg10.dtd">
<svg version="1.0" id="Layer_1" xmlns="http://www.w3.org/2000/svg" xmlns:xlink="http://www.w3.org/1999/xlink" x="0px" y="0px"
	 width="64px" height="64px" viewBox="0 0 64 64" enable-background="new 0 0 64 64" xml:space="preserve">
<path fill="#231F20" d="M60,0H4C1.789,0,0,1.789,0,4v56c0,2.211,1.789,4,4,4h56c2.211,0,4-1.789,4-4V4C64,1.789,62.211,0,60,0z M4,2
	h56c1.104,0,2,0.896,2,2v21.428l-11.409,6.713C49.49,30.832,47.844,30,46,30c-1.8,0-3.41,0.796-4.51,2.051l-15.93-9.803
	C25.842,21.553,26,20.796,26,20c0-3.314-2.686-6-6-6s-6,2.686-6,6c0,1.296,0.414,2.492,1.112,3.473L2,36.586V4C2,2.896,2.896,2,4,2z
	 M46,32c2.209,0,4,1.791,4,4s-1.791,4-4,4s-4-1.791-4-4S43.791,32,46,32z M16,20c0-2.209,1.791-4,4-4s4,1.791,4,4s-1.791,4-4,4
	S16,22.209,16,20z M60,62H4c-1.104,0-2-0.896-2-2V39.414l14.526-14.527C17.507,25.586,18.704,26,20,26c1.8,0,3.41-0.795,4.51-2.051
	l15.93,9.804C40.158,34.447,40,35.205,40,36c0,3.314,2.686,6,6,6s6-2.686,6-6c0-0.752-0.145-1.471-0.397-2.135L62,27.748V60
	C62,61.104,61.104,62,60,62z"/>
</svg>
