<?xml version="1.0" encoding="utf-8"?>
<!-- Generator: Adobe Illustrator 16.0.0, SVG Export Plug-In . SVG Version: 6.00 Build 0)  -->
<!DOCTYPE svg PUBLIC "-//W3C//DTD SVG 1.1//EN" "http://www.w3.org/Graphics/SVG/1.1/DTD/svg11.dtd">
<svg version="1.1" id="Layer_1" xmlns="http://www.w3.org/2000/svg" xmlns:xlink="http://www.w3.org/1999/xlink" x="0px" y="0px"
	 width="64px" height="64px" viewBox="0 0 64 64" enable-background="new 0 0 64 64" xml:space="preserve">
<g>
	<path fill="#231F20" d="M32,17.998c-7.732,0-14,6.268-14,14c0,7.732,6.268,14,14,14c7.732,0,14-6.268,14-14
		C46,24.266,39.732,17.998,32,17.998z M32,43.998c-6.627,0-12-5.373-12-12s5.373-12,12-12s12,5.373,12,12S38.627,43.998,32,43.998z"
		/>
	<path fill="#231F20" d="M32,27.998c-2.209,0-4,1.791-4,4s1.791,4,4,4s4-1.791,4-4S34.209,27.998,32,27.998z M32,33.998
		c-1.104,0-2-0.896-2-2c0-1.104,0.896-2,2-2c1.104,0,2,0.896,2,2C34,33.102,33.104,33.998,32,33.998z"/>
	<path fill="#231F20" d="M60,23.998h-5.371c-0.283-0.803-0.605-1.587-0.97-2.348l3.798-3.797c1.561-1.562,1.559-4.096-0.002-5.658
		l-5.658-5.656c-1.561-1.561-4.094-1.562-5.654,0l-3.799,3.798C41.584,9.974,40.801,9.652,40,9.369V3.996
		c-0.001-2.209-1.793-3.999-4.002-4l-8,0.001c-2.208,0-4,1.79-4,3.999V9.37c-0.801,0.283-1.584,0.604-2.344,0.968l-3.797-3.797
		C16.295,4.979,13.762,4.98,12.2,6.542l-5.657,5.657c-1.562,1.562-1.562,4.094,0,5.656l3.797,3.797
		c-0.363,0.76-0.686,1.544-0.969,2.346H4c-2.209,0-4,1.791-4,4v8c0,2.209,1.791,4,4,4h5.371c0.283,0.803,0.605,1.587,0.97,2.348
		l-3.798,3.797c-1.561,1.562-1.559,4.097,0.002,5.658l5.658,5.656c1.561,1.561,4.094,1.562,5.655,0l3.798-3.798
		c0.76,0.362,1.543,0.685,2.344,0.968V60c0.001,2.209,1.793,3.999,4.002,4l8-0.001c2.208,0,4-1.79,4-3.999v-5.374
		c0.801-0.283,1.584-0.604,2.344-0.968l3.797,3.797c1.562,1.562,4.096,1.561,5.657-0.001l5.657-5.657
		c1.562-1.562,1.562-4.094,0-5.656l-3.797-3.797c0.363-0.76,0.686-1.544,0.969-2.346H60c2.209,0,4-1.791,4-4v-8
		C64,25.789,62.209,23.998,60,23.998z M62,35.998c0,1.104-0.896,2-2,2c0,0-5.125,0-6,0s-1.035,0.677-1.146,1.01
		c-0.112,0.334-0.231,0.664-0.359,0.99c-0.109,0.281-0.225,0.559-0.346,0.834c-0.133,0.307-0.273,0.607-0.422,0.904
		c-0.164,0.332-0.529,0.972,0.274,1.775c0.804,0.805,4.042,4.043,4.042,4.043c0.78,0.78,0.781,2.047,0,2.827l-5.657,5.657
		c-0.78,0.781-2.048,0.781-2.829,0.001c0,0-3.183-3.183-4.064-4.065c-0.883-0.882-1.342-0.455-1.635-0.31
		c-0.336,0.168-0.678,0.328-1.022,0.479c-0.274,0.121-0.552,0.234-0.832,0.345c-0.31,0.12-0.622,0.235-0.938,0.342
		C38.714,52.951,38,52.998,38,53.998S38.002,60,38.002,60c-0.001,1.104-0.895,2-2,2h-8c-1.105-0.001-2.001-0.896-2.002-2
		c0,0,0-5.018,0-6.002s-0.593-1.01-0.886-1.105c-0.376-0.125-0.747-0.258-1.114-0.4c-0.28-0.109-0.558-0.223-0.832-0.344
		c-0.323-0.143-0.643-0.291-0.957-0.448c-0.315-0.156-0.889-0.535-1.74,0.315c-0.851,0.852-4.026,4.027-4.026,4.027
		c-0.78,0.779-2.046,0.781-2.828,0L7.96,50.387c-0.781-0.783-0.781-2.049-0.002-2.83c0,0,3.301-3.301,4.043-4.043
		s0.488-1.35,0.345-1.633c-0.173-0.344-0.337-0.693-0.492-1.047c-0.121-0.275-0.235-0.555-0.346-0.836
		c-0.128-0.326-0.247-0.656-0.359-0.99c-0.112-0.333-0.272-1.01-1.147-1.01s-6,0-6,0c-1.104,0-2-0.896-2-2v-8c0-1.104,0.896-2,2-2
		c0,0,5.125,0,6,0s1.035-0.677,1.147-1.01c0.112-0.334,0.231-0.664,0.359-0.99c0.109-0.281,0.224-0.559,0.345-0.834
		c0.134-0.306,0.274-0.607,0.422-0.904c0.164-0.332,0.53-0.972-0.274-1.776c-0.804-0.804-4.042-4.042-4.042-4.042
		c-0.78-0.781-0.781-2.047,0-2.828l5.657-5.657c0.781-0.781,2.048-0.781,2.829-0.001c0,0,3.183,3.183,4.065,4.065
		c0.882,0.882,1.342,0.456,1.634,0.31c0.336-0.168,0.678-0.328,1.023-0.48c0.274-0.121,0.552-0.234,0.832-0.344
		c0.31-0.121,0.622-0.235,0.938-0.342C25.286,11.045,26,10.998,26,9.998s-0.002-6.002-0.002-6.002c0.001-1.104,0.895-2,2-2h8
		c1.105,0.001,2.001,0.896,2.002,2c0,0,0,5.018,0,6.002s0.593,1.01,0.887,1.105c0.375,0.125,0.746,0.258,1.113,0.401
		c0.279,0.109,0.559,0.223,0.832,0.344c0.322,0.142,0.643,0.291,0.957,0.448c0.314,0.156,0.889,0.535,1.74-0.316
		c0.851-0.851,4.025-4.027,4.025-4.027c0.78-0.779,2.047-0.781,2.828,0l5.657,5.656c0.78,0.783,0.78,2.049,0.002,2.83
		c0,0-3.301,3.301-4.043,4.043c-0.742,0.742-0.487,1.35-0.345,1.633c0.173,0.344,0.337,0.693,0.492,1.047
		c0.121,0.275,0.234,0.555,0.346,0.836c0.128,0.326,0.247,0.656,0.359,0.99c0.111,0.333,0.271,1.01,1.146,1.01s6,0,6,0
		c1.104,0,2,0.896,2,2v8H62z"/>
</g>
</svg>
