<?xml version="1.0" encoding="utf-8"?>
<!-- Generator: Adobe Illustrator 16.0.0, SVG Export Plug-In . SVG Version: 6.00 Build 0)  -->
<!DOCTYPE svg PUBLIC "-//W3C//DTD SVG 1.0//EN" "http://www.w3.org/TR/2001/REC-SVG-20010904/DTD/svg10.dtd">
<svg version="1.0" id="Layer_1" xmlns="http://www.w3.org/2000/svg" xmlns:xlink="http://www.w3.org/1999/xlink" x="0px" y="0px"
	 width="64px" height="64px" viewBox="0 0 64 64" enable-background="new 0 0 64 64" xml:space="preserve">
<g>
	<path fill="#231F20" d="M60,0H4C1.789,0,0,1.789,0,4v40c0,2.211,1.789,4,4,4h8v15c0,0.404,0.243,0.77,0.617,0.924
		C12.741,63.976,12.871,64,13,64c0.26,0,0.516-0.102,0.707-0.293L29.414,48H60c2.211,0,4-1.789,4-4V4C64,1.789,62.211,0,60,0z
		 M62,44c0,1.104-0.896,2-2,2c0,0-29.46,0-30.501,0s-1.791,0.791-1.791,0.791L14,60.5V47c0-0.553-0.447-1-1-1H4
		c-1.104,0-2-0.896-2-2V4c0-1.104,0.896-2,2-2h56c1.104,0,2,0.896,2,2V44z"/>
	<path fill="#231F20" d="M15,16h16c0.553,0,1-0.447,1-1s-0.447-1-1-1H15c-0.553,0-1,0.447-1,1S14.447,16,15,16z"/>
	<path fill="#231F20" d="M49,20H15c-0.553,0-1,0.447-1,1s0.447,1,1,1h34c0.553,0,1-0.447,1-1S49.553,20,49,20z"/>
	<path fill="#231F20" d="M15,28h24c0.553,0,1-0.447,1-1s-0.447-1-1-1H15c-0.553,0-1,0.447-1,1S14.447,28,15,28z"/>
	<path fill="#231F20" d="M45,32H15c-0.553,0-1,0.447-1,1s0.447,1,1,1h30c0.553,0,1-0.447,1-1S45.553,32,45,32z"/>
</g>
</svg>
