<?xml version="1.0" encoding="utf-8"?>
<!-- Generator: Adobe Illustrator 16.0.0, SVG Export Plug-In . SVG Version: 6.00 Build 0)  -->
<!DOCTYPE svg PUBLIC "-//W3C//DTD SVG 1.0//EN" "http://www.w3.org/TR/2001/REC-SVG-20010904/DTD/svg10.dtd">
<svg version="1.0" id="Layer_1" xmlns="http://www.w3.org/2000/svg" xmlns:xlink="http://www.w3.org/1999/xlink" x="0px" y="0px"
	 width="64px" height="64px" viewBox="0 0 64 64" enable-background="new 0 0 64 64" xml:space="preserve">
<g>
	<path fill="#231F20" d="M60,8H4c-2.211,0-4,1.789-4,4v40c0,2.211,1.789,4,4,4h56c2.211,0,4-1.789,4-4V12C64,9.789,62.211,8,60,8z
		 M62,52c0,1.104-0.896,2-2,2H4c-1.104,0-2-0.896-2-2V30h60V52z M62,28H2v-8h60V28z M62,18H2v-6c0-1.104,0.896-2,2-2h56
		c1.104,0,2,0.896,2,2V18z"/>
	<path fill="#231F20" d="M11,40h14c0.553,0,1-0.447,1-1s-0.447-1-1-1H11c-0.553,0-1,0.447-1,1S10.447,40,11,40z"/>
	<path fill="#231F20" d="M29,40h6c0.553,0,1-0.447,1-1s-0.447-1-1-1h-6c-0.553,0-1,0.447-1,1S28.447,40,29,40z"/>
	<path fill="#231F20" d="M11,46h10c0.553,0,1-0.447,1-1s-0.447-1-1-1H11c-0.553,0-1,0.447-1,1S10.447,46,11,46z"/>
	<path fill="#231F20" d="M45,46h8c0.553,0,1-0.447,1-1v-6c0-0.553-0.447-1-1-1h-8c-0.553,0-1,0.447-1,1v6C44,45.553,44.447,46,45,46
		z M46,40h6v4h-6V40z"/>
</g>
</svg>
