<?xml version="1.0" encoding="utf-8"?>
<!-- Generator: Adobe Illustrator 16.0.0, SVG Export Plug-In . SVG Version: 6.00 Build 0)  -->
<!DOCTYPE svg PUBLIC "-//W3C//DTD SVG 1.0//EN" "http://www.w3.org/TR/2001/REC-SVG-20010904/DTD/svg10.dtd">
<svg version="1.0" id="Layer_1" xmlns="http://www.w3.org/2000/svg" xmlns:xlink="http://www.w3.org/1999/xlink" x="0px" y="0px"
	 width="64px" height="64px" viewBox="0 0 64 64" enable-background="new 0 0 64 64" xml:space="preserve">
<g>
	<path fill="#231F20" d="M32,0C14.355,0,0,14.355,0,32s14.355,32,32,32s32-14.355,32-32S49.645,0,32,0z M32,62
		C15.458,62,2,48.542,2,32S15.458,2,32,2s30,13.458,30,30S48.542,62,32,62z"/>
	<path fill="#231F20" d="M34.996,28.021L35,28.008V17c0-1.654-1.346-3-3-3s-3,1.346-3,3v11l0.004,0.021
		C27.795,28.936,27,30.371,27,32c0,2.757,2.243,5,5,5s5-2.243,5-5C37,30.371,36.205,28.936,34.996,28.021z M31,17
		c0-0.552,0.448-1,1-1s1,0.448,1,1v10.102C32.677,27.035,32.343,27,32,27s-0.677,0.035-1,0.102V17z M32,35c-1.654,0-3-1.346-3-3
		s1.346-3,3-3s3,1.346,3,3S33.654,35,32,35z"/>
	<path fill="#231F20" d="M32.03,31H32.02c-0.552,0-0.994,0.447-0.994,1s0.452,1,1.005,1c0.552,0,1-0.447,1-1S32.582,31,32.03,31z"/>
	<path fill="#231F20" d="M32,4C16.561,4,4,16.561,4,32c0,4.738,1.19,9.201,3.277,13.116c0.314,0.59,0.646,1.169,1.001,1.733
		l6.035-3.485c0.479-0.275,0.642-0.886,0.366-1.364c-0.276-0.479-0.887-0.644-1.367-0.366l-4.301,2.483v-0.001
		c-0.744-1.405-1.36-2.887-1.841-4.429l1.904-0.51c0.535-0.145,0.852-0.688,0.707-1.225c-0.143-0.533-0.691-0.85-1.225-0.707
		l-1.9,0.509c-0.351-1.538-0.563-3.127-0.626-4.756H11c0.554,0,0.999-0.447,1-0.999c0-0.554-0.446-1.001-1.001-1.001H6.025
		c0.062-1.628,0.275-3.218,0.625-4.756l1.907,0.511c0.535,0.143,1.082-0.17,1.225-0.707c0.144-0.532-0.174-1.081-0.707-1.225
		L7.161,24.31c0.479-1.544,1.103-3.023,1.847-4.431l4.307,2.486c0.479,0.276,1.088,0.112,1.365-0.365
		c0.276-0.479,0.113-1.09-0.367-1.367l-4.301-2.482c0.857-1.357,1.835-2.63,2.921-3.803l1.389,1.389
		c0.393,0.391,1.022,0.393,1.414,0c0.391-0.39,0.391-1.023,0-1.414l-1.389-1.389c1.173-1.087,2.447-2.064,3.805-2.923l2.483,4.303
		c0.276,0.479,0.887,0.641,1.365,0.366c0.479-0.277,0.643-0.888,0.365-1.368L19.88,9.008c1.406-0.744,2.886-1.367,4.429-1.846
		l0.513,1.914c0.145,0.534,0.689,0.852,1.225,0.707c0.533-0.143,0.851-0.69,0.707-1.225L26.242,6.65
		c1.539-0.35,3.13-0.563,4.759-0.625L31,11.001c0,0.552,0.448,0.998,1,0.999c0.553-0.001,1-0.447,1-1.002V6.025
		c1.628,0.062,3.218,0.275,4.757,0.625l-0.512,1.908c-0.143,0.534,0.172,1.082,0.707,1.225c0.533,0.144,1.082-0.173,1.225-0.707
		l0.513-1.915c1.544,0.479,3.024,1.103,4.432,1.847l-2.488,4.307c-0.275,0.478-0.11,1.089,0.367,1.364
		c0.479,0.276,1.09,0.113,1.367-0.367l2.482-4.3c1.357,0.857,2.631,1.835,3.803,2.922l-1.39,1.389c-0.391,0.391-0.392,1.023,0,1.414
		c0.391,0.391,1.023,0.391,1.414,0l1.39-1.389c1.087,1.173,2.064,2.445,2.922,3.803l-4.304,2.483
		c-0.478,0.276-0.64,0.889-0.364,1.365c0.276,0.479,0.888,0.643,1.368,0.365l4.304-2.484c0.744,1.406,1.367,2.886,1.847,4.43
		l-1.916,0.513c-0.533,0.144-0.851,0.69-0.707,1.225c0.143,0.533,0.691,0.851,1.225,0.707l1.909-0.512
		c0.35,1.54,0.563,3.129,0.625,4.758H53c-0.553,0-1,0.447-1,1s0.447,1,1,1h4.969c-0.062,1.629-0.275,3.218-0.626,4.756l-1.902-0.51
		c-0.535-0.141-1.079,0.171-1.225,0.707c-0.143,0.534,0.178,1.082,0.707,1.225l1.906,0.511c-0.48,1.541-1.097,3.023-1.842,4.429
		l-4.301-2.483c-0.479-0.276-1.09-0.112-1.366,0.366s-0.113,1.089,0.366,1.366l6.035,3.484c0.354-0.563,0.686-1.143,1-1.732
		C58.81,41.202,60,36.739,60,32C60,16.561,47.439,4,32,4z"/>
</g>
</svg>
