<?xml version="1.0" encoding="utf-8"?>
<!-- Generator: Adobe Illustrator 16.0.0, SVG Export Plug-In . SVG Version: 6.00 Build 0)  -->
<!DOCTYPE svg PUBLIC "-//W3C//DTD SVG 1.0//EN" "http://www.w3.org/TR/2001/REC-SVG-20010904/DTD/svg10.dtd">
<svg version="1.0" id="Layer_1" xmlns="http://www.w3.org/2000/svg" xmlns:xlink="http://www.w3.org/1999/xlink" x="0px" y="0px"
	 width="64px" height="64px" viewBox="0 0 64 64" enable-background="new 0 0 64 64" xml:space="preserve">
<g>
	<path fill="#231F20" d="M63.934,31.645c-0.015-0.037-0.256-0.646-0.74-1.648C60.597,24.627,51.02,8.004,32,8.004
		c-22.568,0-31.842,23.404-31.934,23.641c-0.089,0.231-0.089,0.487,0,0.719C0.158,32.6,9.432,56.004,32,56.004
		c19.01,0,28.587-16.605,31.189-21.983c0.486-1.007,0.729-1.62,0.744-1.657C64.022,32.132,64.022,31.876,63.934,31.645z M32,54.004
		c-19.686,0-28.677-19.123-29.917-22.001C3.321,29.121,12.288,10.004,32,10.004c19.686,0,28.677,19.123,29.917,22.001
		C60.679,34.887,51.712,54.004,32,54.004z"/>
	<path fill="#231F20" d="M32,16.008c-8.837,0-16,7.163-16,16s7.163,16,16,16s16-7.163,16-16S40.837,16.008,32,16.008z M32,46.008
		c-7.732,0-14-6.268-14-14s6.268-14,14-14s14,6.268,14,14S39.732,46.008,32,46.008z"/>
	<path fill="#231F20" d="M32,24.008c-4.418,0-8,3.582-8,8s3.582,8,8,8s8-3.582,8-8S36.418,24.008,32,24.008z M32,38.008
		c-3.313,0-6-2.687-6-6s2.687-6,6-6s6,2.687,6,6S35.313,38.008,32,38.008z"/>
	<path fill="#231F20" d="M32,28.004c-0.553,0-1,0.447-1,1s0.447,1,1,1c1.104,0,2,0.896,2,2c0,0.553,0.447,1,1,1s1-0.447,1-1
		C36,29.795,34.209,28.004,32,28.004z"/>
</g>
</svg>
