<?xml version="1.0" encoding="utf-8"?>
<!-- Generator: Adobe Illustrator 16.0.0, SVG Export Plug-In . SVG Version: 6.00 Build 0)  -->
<!DOCTYPE svg PUBLIC "-//W3C//DTD SVG 1.0//EN" "http://www.w3.org/TR/2001/REC-SVG-20010904/DTD/svg10.dtd">
<svg version="1.0" id="Layer_1" xmlns="http://www.w3.org/2000/svg" xmlns:xlink="http://www.w3.org/1999/xlink" x="0px" y="0px"
	 width="64px" height="64px" viewBox="0 0 64 64" enable-background="new 0 0 64 64" xml:space="preserve">
<g>
	<path fill="#231F20" d="M63.585,29.188c-0.262-0.188-0.598-0.241-0.901-0.137L52,32.612V26c0-2.211-1.789-4-4-4h-4.372
		C46.864,19.852,49,16.177,49,12c0-6.629-5.374-12-12-12c-4.923,0-9.149,2.968-11,7.211C24.149,2.968,19.923,0,15,0
		C8.374,0,3,5.371,3,12c0,4.177,2.136,7.852,5.372,10H4c-2.211,0-4,1.789-4,4v34c0,2.211,1.789,4,4,4h44c2.211,0,4-1.789,4-4v-6.613
		l10.684,3.562C62.787,56.983,62.894,57,63,57c0.207,0,0.412-0.064,0.585-0.188C63.846,56.623,64,56.321,64,56V30
		C64,29.679,63.846,29.377,63.585,29.188z M37,2c5.523,0,10,4.477,10,10s-4.477,10-10,10s-10-4.477-10-10S31.477,2,37,2z M30.372,22
		h-8.744c1.916-1.272,3.443-3.08,4.372-5.211C26.929,18.92,28.456,20.728,30.372,22z M5,12C5,6.477,9.477,2,15,2s10,4.477,10,10
		s-4.477,10-10,10S5,17.523,5,12z M50,60c0,1.104-0.896,2-2,2H4c-1.104,0-2-0.896-2-2V26c0-1.104,0.896-2,2-2h44
		c1.104,0,2,0.896,2,2V60z M52,34.72l6-1.999v20.559l-6-2V34.72z M62,54.612l-2-0.667V32.055l2-0.667V54.612z"/>
	<path fill="#231F20" d="M39,12c0,1.656,1.344,3,3,3s3-1.344,3-3s-1.344-3-3-3S39,10.344,39,12z M42,11c0.553,0,1,0.447,1,1
		s-0.447,1-1,1s-1-0.447-1-1S41.447,11,42,11z"/>
	<path fill="#231F20" d="M37,10c1.656,0,3-1.344,3-3s-1.344-3-3-3s-3,1.344-3,3S35.344,10,37,10z M37,6c0.553,0,1,0.447,1,1
		s-0.447,1-1,1s-1-0.447-1-1S36.447,6,37,6z"/>
	<path fill="#231F20" d="M37,14c-1.656,0-3,1.344-3,3s1.344,3,3,3s3-1.344,3-3S38.656,14,37,14z M37,18c-0.553,0-1-0.447-1-1
		s0.447-1,1-1s1,0.447,1,1S37.553,18,37,18z"/>
	<path fill="#231F20" d="M35,12c0-1.656-1.344-3-3-3s-3,1.344-3,3s1.344,3,3,3S35,13.656,35,12z M31,12c0-0.553,0.447-1,1-1
		s1,0.447,1,1s-0.447,1-1,1S31,12.553,31,12z"/>
	<path fill="#231F20" d="M23,12c0-1.656-1.344-3-3-3s-3,1.344-3,3s1.344,3,3,3S23,13.656,23,12z M20,13c-0.553,0-1-0.447-1-1
		s0.447-1,1-1s1,0.447,1,1S20.553,13,20,13z"/>
	<path fill="#231F20" d="M15,10c1.656,0,3-1.344,3-3s-1.344-3-3-3s-3,1.344-3,3S13.344,10,15,10z M15,6c0.553,0,1,0.447,1,1
		s-0.447,1-1,1s-1-0.447-1-1S14.447,6,15,6z"/>
	<path fill="#231F20" d="M15,14c-1.656,0-3,1.344-3,3s1.344,3,3,3s3-1.344,3-3S16.656,14,15,14z M15,18c-0.553,0-1-0.447-1-1
		s0.447-1,1-1s1,0.447,1,1S15.553,18,15,18z"/>
	<path fill="#231F20" d="M13,12c0-1.656-1.344-3-3-3s-3,1.344-3,3s1.344,3,3,3S13,13.656,13,12z M10,13c-0.553,0-1-0.447-1-1
		s0.447-1,1-1s1,0.447,1,1S10.553,13,10,13z"/>
	<path fill="#231F20" d="M36,36H16c-0.553,0-1,0.448-1,1v12c0,0.552,0.447,1,1,1h20c0.553,0,1-0.448,1-1V37
		C37,36.448,36.553,36,36,36z M35,48H17V38h18V48z"/>
</g>
</svg>
