<?xml version="1.0" encoding="utf-8"?>
<!-- Generator: Adobe Illustrator 16.0.0, SVG Export Plug-In . SVG Version: 6.00 Build 0)  -->
<!DOCTYPE svg PUBLIC "-//W3C//DTD SVG 1.0//EN" "http://www.w3.org/TR/2001/REC-SVG-20010904/DTD/svg10.dtd">
<svg version="1.0" id="Layer_1" xmlns="http://www.w3.org/2000/svg" xmlns:xlink="http://www.w3.org/1999/xlink" x="0px" y="0px"
	 width="64px" height="64px" viewBox="0 0 64 64" enable-background="new 0 0 64 64" xml:space="preserve">
<g>
	<path fill="#231F20" d="M60,8H36V4c0-2.209-1.789-4-4-4H4C1.789,0,0,1.791,0,4v56c0,2.211,1.789,4,4,4h56c2.211,0,4-1.789,4-4V12
		C64,9.789,62.211,8,60,8z M62,60c0,1.104-0.896,2-2,2H4c-1.104,0-2-0.896-2-2V16h60V60z M62,14H2V4c0-1.104,0.896-2,2-2h28
		c1.104,0,2,0.896,2,2v6h26c1.104,0,2,0.896,2,2V14z"/>
	<path fill="#231F20" d="M15,46h34c0.553,0,1-0.447,1-1s-0.447-1-1-1H15c-0.553,0-1,0.447-1,1S14.447,46,15,46z"/>
	<path fill="#231F20" d="M15,40h34c0.553,0,1-0.447,1-1s-0.447-1-1-1H15c-0.553,0-1,0.447-1,1S14.447,40,15,40z"/>
	<path fill="#231F20" d="M15,34h16c0.553,0,1-0.447,1-1s-0.447-1-1-1H15c-0.553,0-1,0.447-1,1S14.447,34,15,34z"/>
</g>
</svg>
