<?xml version="1.0" encoding="utf-8"?>
<!-- Generator: Adobe Illustrator 16.0.0, SVG Export Plug-In . SVG Version: 6.00 Build 0)  -->
<!DOCTYPE svg PUBLIC "-//W3C//DTD SVG 1.0//EN" "http://www.w3.org/TR/2001/REC-SVG-20010904/DTD/svg10.dtd">
<svg version="1.0" id="Layer_1" xmlns="http://www.w3.org/2000/svg" xmlns:xlink="http://www.w3.org/1999/xlink" x="0px" y="0px"
	 width="64px" height="64px" viewBox="0 0 64 64" enable-background="new 0 0 64 64" xml:space="preserve">
<g>
	<path fill="#231F20" d="M44,0c-6.558,0-12.361,3.166-16.002,8.045c-1.138,1.523-2.064,3.213-2.735,5.028
		c-0.58,1.916-1.48,3.71-2.632,5.315L5.122,0.879c-1.172-1.172-3.071-1.171-4.243,0c-1.171,1.172-1.172,3.071,0,4.243l17.514,17.513
		c-1.566,1.125-3.312,2.007-5.185,2.573c-0.049,0.015-0.085,0.04-0.135,0.055c-1.814,0.671-3.505,1.598-5.028,2.735
		C3.165,31.639,0,37.442,0,44c0,11.046,8.954,20,20,20c6.558,0,12.361-3.166,16.002-8.045c1.138-1.523,2.064-3.213,2.735-5.028
		c1.738-5.739,6.45-10.452,12.189-12.189c1.814-0.671,3.505-1.598,5.028-2.735C60.835,32.361,64,26.558,64,20
		C64,8.954,55.046,0,44,0z M2.294,2.294c0.391-0.392,1.022-0.392,1.414,0l17.664,17.665l0,0l-1.409,1.418L2.294,3.708
		C1.902,3.316,1.902,2.685,2.294,2.294z M50.455,36.795c-6.582,1.898-11.762,7.078-13.659,13.66C34.2,57.205,27.665,62,20,62
		c-9.941,0-18-8.059-18-18c0-7.664,4.794-14.2,11.545-16.795c6.582-1.898,11.762-7.078,13.659-13.66C29.8,6.795,36.335,2,44,2
		c9.941,0,18,8.059,18,18C62,27.664,57.206,34.2,50.455,36.795z"/>
	<path fill="#231F20" d="M26,42h-4v-4c0-0.553-0.447-1-1-1h-4c-0.553,0-1,0.447-1,1v4h-4c-0.553,0-1,0.447-1,1v4
		c0,0.553,0.447,1,1,1h4v4c0,0.553,0.447,1,1,1h4c0.553,0,1-0.447,1-1v-4h4c0.553,0,1-0.447,1-1v-4C27,42.447,26.553,42,26,42z
		 M25,46h-5v5h-2v-5h-5v-2h5v-5h2v5h5V46z"/>
	<path fill="#231F20" d="M52,16c-1.657,0-3,1.344-3,3s1.343,3,3,3s3-1.344,3-3S53.657,16,52,16z M52,20c-0.553,0-1-0.447-1-1
		s0.447-1,1-1s1,0.447,1,1S52.553,20,52,20z"/>
	<path fill="#231F20" d="M38,16c-1.657,0-3,1.344-3,3s1.343,3,3,3s3-1.344,3-3S39.657,16,38,16z M38,20c-0.553,0-1-0.447-1-1
		s0.447-1,1-1s1,0.447,1,1S38.553,20,38,20z"/>
	<path fill="#231F20" d="M45,23c-1.656,0-3,1.343-3,3s1.344,3,3,3s3-1.343,3-3S46.656,23,45,23z M45,27c-0.553,0-1-0.447-1-1
		s0.447-1,1-1s1,0.447,1,1S45.553,27,45,27z"/>
	<path fill="#231F20" d="M45,9c-1.656,0-3,1.343-3,3s1.344,3,3,3s3-1.343,3-3S46.656,9,45,9z M45,13c-0.553,0-1-0.447-1-1
		s0.447-1,1-1s1,0.447,1,1S45.553,13,45,13z"/>
	<path fill="#231F20" d="M29.879,32.707l-2.121,2.121c-0.392,0.392-0.392,1.023,0,1.414c0.391,0.392,1.022,0.392,1.414,0
		l2.121-2.121c0.391-0.391,0.391-1.023,0-1.414S30.27,32.316,29.879,32.707z"/>
	<path fill="#231F20" d="M34.828,27.758l-2.121,2.121c-0.391,0.391-0.391,1.023,0,1.414s1.023,0.391,1.414,0l2.121-2.121
		c0.391-0.391,0.391-1.023,0-1.414S35.219,27.367,34.828,27.758z"/>
</g>
</svg>
