<?xml version="1.0" encoding="utf-8"?>
<!-- Generator: Adobe Illustrator 16.0.0, SVG Export Plug-In . SVG Version: 6.00 Build 0)  -->
<!DOCTYPE svg PUBLIC "-//W3C//DTD SVG 1.0//EN" "http://www.w3.org/TR/2001/REC-SVG-20010904/DTD/svg10.dtd">
<svg version="1.0" id="Layer_1" xmlns="http://www.w3.org/2000/svg" xmlns:xlink="http://www.w3.org/1999/xlink" x="0px" y="0px"
	 width="64px" height="64px" viewBox="0 0 64 64" enable-background="new 0 0 64 64" xml:space="preserve">
<g>
	<path fill="#231F20" d="M64,4c0-2.209-1.791-4-4-4h-4c-1.657,0-3,1.344-3,3s1.343,3,3,3h2v32H40c-0.593,0-1.161,0.094-1.701,0.254
		C36.58,36.851,34.393,36,32,36s-4.58,0.851-6.299,2.254C25.161,38.094,24.593,38,24,38H6V6h2c1.657,0,3-1.344,3-3S9.657,0,8,0H4
		C1.791,0,0,1.791,0,4v39h0.09C0.035,43.326,0,43.658,0,44v8c0,6.627,5.373,12,12,12h6c6.627,0,12-5.373,12-12v-8
		c0-0.462-0.058-0.91-0.156-1.342C30.466,42.25,31.199,42,32,42s1.534,0.25,2.156,0.658C34.058,43.09,34,43.538,34,44v8
		c0,6.627,5.373,12,12,12h6c6.627,0,12-5.373,12-12v-8c0-0.342-0.035-0.674-0.09-1H64V4z M2,4c0-1.104,0.896-2,2-2h4
		c0.553,0,1,0.447,1,1S8.553,4,8,4H5C4.447,4,4,4.447,4,5v33.349c-0.746,0.265-1.423,0.671-2,1.188V4z M28,52
		c0,5.522-4.477,10-10,10h-6C6.478,62,2,57.523,2,52v-8c0-2.209,1.791-4,4-4h18c2.209,0,4,1.791,4,4V52z M34.943,40.78
		C34.073,40.288,33.072,40,32,40s-2.073,0.288-2.943,0.78c-0.368-0.577-0.836-1.081-1.373-1.501C28.93,38.475,30.406,38,32,38
		s3.07,0.475,4.316,1.279C35.779,39.699,35.312,40.203,34.943,40.78z M62,52c0,5.522-4.477,10-10,10h-6c-5.522,0-10-4.477-10-10v-8
		c0-2.209,1.791-4,4-4h18c2.209,0,4,1.791,4,4V52z M62,39.537c-0.577-0.518-1.254-0.924-2-1.188V5c0-0.553-0.447-1-1-1h-3
		c-0.553,0-1-0.447-1-1s0.447-1,1-1h4c1.104,0,2,0.896,2,2V39.537z"/>
	<path fill="#231F20" d="M59,51c-0.553,0-1,0.447-1,1c0,3.313-2.687,6-6,6c-0.553,0-1,0.447-1,1s0.447,1,1,1c4.418,0,8-3.582,8-8
		C60,51.447,59.553,51,59,51z"/>
	<path fill="#231F20" d="M25,51c-0.553,0-1,0.447-1,1c0,3.313-2.687,6-6,6c-0.553,0-1,0.447-1,1s0.447,1,1,1c4.418,0,8-3.582,8-8
		C26,51.447,25.553,51,25,51z"/>
</g>
</svg>
