<?xml version="1.0" encoding="utf-8"?>
<!-- Generator: Adobe Illustrator 16.0.0, SVG Export Plug-In . SVG Version: 6.00 Build 0)  -->
<!DOCTYPE svg PUBLIC "-//W3C//DTD SVG 1.0//EN" "http://www.w3.org/TR/2001/REC-SVG-20010904/DTD/svg10.dtd">
<svg version="1.0" id="Layer_1" xmlns="http://www.w3.org/2000/svg" xmlns:xlink="http://www.w3.org/1999/xlink" x="0px" y="0px"
	 width="64px" height="64px" viewBox="0 0 64 64" enable-background="new 0 0 64 64" xml:space="preserve">
<g>
	<path fill="#231F20" d="M56,0H8C5.789,0,4,1.789,4,4v56c0,2.211,1.789,4,4,4h48c2.211,0,4-1.789,4-4V4C60,1.789,58.211,0,56,0z
		 M58,60c0,1.104-0.896,2-2,2H8c-1.104,0-2-0.896-2-2V48h52V60z M58,46H6V4c0-1.104,0.896-2,2-2h48c1.104,0,2,0.896,2,2V46z"/>
	<path fill="#231F20" d="M51,58c1.657,0,3-1.344,3-3s-1.343-3-3-3s-3,1.344-3,3S49.343,58,51,58z M51,54c0.553,0,1,0.447,1,1
		s-0.447,1-1,1s-1-0.447-1-1S50.447,54,51,54z"/>
	<path fill="#231F20" d="M41,58c1.657,0,3-1.344,3-3s-1.343-3-3-3s-3,1.344-3,3S39.343,58,41,58z M41,54c0.553,0,1,0.447,1,1
		s-0.447,1-1,1s-1-0.447-1-1S40.447,54,41,54z"/>
	<path fill="#231F20" d="M31,58c1.657,0,3-1.344,3-3s-1.343-3-3-3s-3,1.344-3,3S29.343,58,31,58z M31,54c0.553,0,1,0.447,1,1
		s-0.447,1-1,1s-1-0.447-1-1S30.447,54,31,54z"/>
	<path fill="#231F20" d="M32,6c-9.941,0-18,8.059-18,18s8.059,18,18,18s18-8.059,18-18S41.941,6,32,6z M32,40
		c-8.837,0-16-7.163-16-16S23.163,8,32,8s16,7.163,16,16S40.837,40,32,40z"/>
</g>
</svg>
