<?xml version="1.0" encoding="utf-8"?>
<!-- Generator: Adobe Illustrator 16.0.0, SVG Export Plug-In . SVG Version: 6.00 Build 0)  -->
<!DOCTYPE svg PUBLIC "-//W3C//DTD SVG 1.0//EN" "http://www.w3.org/TR/2001/REC-SVG-20010904/DTD/svg10.dtd">
<svg version="1.0" id="Layer_1" xmlns="http://www.w3.org/2000/svg" xmlns:xlink="http://www.w3.org/1999/xlink" x="0px" y="0px"
	 width="64px" height="64px" viewBox="0 0 64 64" enable-background="new 0 0 64 64" xml:space="preserve">
<path fill="#231F20" d="M57,39.998V40h-1V29.998c0.553,0,1-0.447,1-1v-4c0-13.807-11.193-25-25-25s-25,11.193-25,25v4
	c0,0.553,0.447,1,1,1v10H7c-3.866,0-7,3.134-7,7V57c0,3.865,3.134,7,7,7v-0.002h5c2.211,0,4-1.789,4-4v-16
	c0-1.479-0.809-2.754-2-3.445V29.998c0.553,0,1-0.447,1-1v-4c0-9.389,7.611-17,17-17s17,7.611,17,17v4c0,0.553,0.447,1,1,1v10.555
	c-1.191,0.693-2,1.968-2,3.447v16c0,2.211,1.789,4,4,4h5c3.866,0,7-3.135,7-7V46.998C64,43.132,60.866,39.998,57,39.998z M6,61.898
	C3.718,61.435,2,59.418,2,57V46.998c0-2.419,1.719-4.436,4-4.899V61.898z M14,59.998c0,1.104-0.896,2-2,2H8v-20h4
	c1.104,0,2,0.896,2,2V59.998z M10,39.998v-10h2v10H10z M32,5.998c-10.493,0-19,8.506-19,19v3H9v-3c0-12.703,10.298-23,23-23
	s23,10.297,23,23v3h-4v-3C51,14.504,42.493,5.998,32,5.998z M54,29.998V40h-2V29.998H54z M56,62h-4c-1.104,0-2-0.896-2-2V44
	c0-1.105,0.896-2,2-2h4V62z M62,57c0,2.418-1.719,4.435-4,4.898v-19.8c2.282,0.464,4,2.481,4,4.899V57z"/>
</svg>
