<?xml version="1.0" encoding="utf-8"?>
<!-- Generator: Adobe Illustrator 16.0.0, SVG Export Plug-In . SVG Version: 6.00 Build 0)  -->
<!DOCTYPE svg PUBLIC "-//W3C//DTD SVG 1.0//EN" "http://www.w3.org/TR/2001/REC-SVG-20010904/DTD/svg10.dtd">
<svg version="1.0" id="Layer_1" xmlns="http://www.w3.org/2000/svg" xmlns:xlink="http://www.w3.org/1999/xlink" x="0px" y="0px"
	 width="64px" height="64px" viewBox="0 0 64 64" enable-background="new 0 0 64 64" xml:space="preserve">
<g>
	<path fill="#231F20" d="M60,0H4C1.789,0,0,1.789,0,4v40c0,2.211,1.789,4,4,4h24v10h-8c-2.209,0-4,1.791-4,4v1c0,0.553,0.447,1,1,1
		h30c0.553,0,1-0.447,1-1v-1c0-2.209-1.791-4-4-4h-8V48h24c2.211,0,4-1.789,4-4V4C64,1.789,62.211,0,60,0z M44,60
		c1.104,0,2,0.896,2,2H18c0-1.104,0.896-2,2-2H44z M34,58h-4V48h4V58z M62,44c0,1.104-0.896,2-2,2H4c-1.104,0-2-0.896-2-2v-4h60V44z
		 M62,38H2V4c0-1.104,0.896-2,2-2h56c1.104,0,2,0.896,2,2V38z"/>
	<circle fill="#231F20" cx="32" cy="43" r="2"/>
</g>
</svg>
