<?xml version="1.0" encoding="utf-8"?>
<!-- Generator: Adobe Illustrator 16.0.0, SVG Export Plug-In . SVG Version: 6.00 Build 0)  -->
<!DOCTYPE svg PUBLIC "-//W3C//DTD SVG 1.0//EN" "http://www.w3.org/TR/2001/REC-SVG-20010904/DTD/svg10.dtd">
<svg version="1.0" id="Layer_1" xmlns="http://www.w3.org/2000/svg" xmlns:xlink="http://www.w3.org/1999/xlink" x="0px" y="0px"
	 width="64px" height="64px" viewBox="0 0 64 64" enable-background="new 0 0 64 64" xml:space="preserve">
<g>
	<path fill="#231F20" d="M48,0H16c-2.211,0-4,1.789-4,4v56c0,2.211,1.789,4,4,4h32c2.211,0,4-1.789,4-4V4C52,1.789,50.211,0,48,0z
		 M50,60c0,1.104-0.896,2-2,2H16c-1.104,0-2-0.896-2-2v-8h36V60z M50,50H14V10h36V50z M50,8H14V4c0-1.104,0.896-2,2-2h32
		c1.104,0,2,0.896,2,2V8z"/>
	<path fill="#231F20" d="M32,60c1.658,0,3-1.342,3-3s-1.342-3-3-3s-3,1.342-3,3S30.342,60,32,60z M32,56c0.553,0,1,0.447,1,1
		s-0.447,1-1,1s-1-0.447-1-1S31.447,56,32,56z"/>
	<path fill="#231F20" d="M33,4h-6c-0.553,0-1,0.447-1,1s0.447,1,1,1h6c0.553,0,1-0.447,1-1S33.553,4,33,4z"/>
	<circle fill="#231F20" cx="37" cy="5" r="1"/>
</g>
</svg>
