<?xml version="1.0" encoding="utf-8"?>
<!-- Generator: Adobe Illustrator 16.0.0, SVG Export Plug-In . SVG Version: 6.00 Build 0)  -->
<!DOCTYPE svg PUBLIC "-//W3C//DTD SVG 1.0//EN" "http://www.w3.org/TR/2001/REC-SVG-20010904/DTD/svg10.dtd">
<svg version="1.0" id="Layer_1" xmlns="http://www.w3.org/2000/svg" xmlns:xlink="http://www.w3.org/1999/xlink" x="0px" y="0px"
	 width="64px" height="64px" viewBox="0 0 64 64" enable-background="new 0 0 64 64" xml:space="preserve">
<g>
	<path fill="#231F20" d="M22,10c-6.617,0-12,5.383-12,12s5.383,12,12,12s12-5.383,12-12S28.617,10,22,10z M22,32
		c-5.514,0-10-4.486-10-10s4.486-10,10-10s10,4.486,10,10S27.514,32,22,32z"/>
	<path fill="#231F20" d="M22,14c-4.411,0-8,3.589-8,8s3.589,8,8,8s8-3.589,8-8S26.411,14,22,14z M22,28c-3.309,0-6-2.691-6-6
		s2.691-6,6-6s6,2.691,6,6S25.309,28,22,28z"/>
	<path fill="#231F20" d="M63.414,50.586l-20.83-20.83C43.497,27.342,44,24.729,44,22C44,9.869,34.131,0,22,0S0,9.869,0,22
		s9.869,22,22,22c2.195,0,4.315-0.327,6.318-0.929c0.076,0.121,0.162,0.237,0.268,0.343l2,2C30.961,45.789,31.47,46,32,46h4v4
		c0,1.104,0.896,2,2,2h4v4c0,1.104,0.896,2,2,2h4v4c0,1.104,0.896,2,2,2h12c1.104,0,2-0.896,2-2V52
		C64,51.47,63.789,50.961,63.414,50.586z M62,52v8.586L38.239,36.825c1.389-1.52,2.564-3.235,3.487-5.099L62,52z M2,22
		C2,10.972,10.972,2,22,2s20,8.972,20,20s-8.972,20-20,20S2,33.028,2,22z M49,56h-5v-5c0-0.553-0.447-1-1-1h-5v-5
		c0-0.553-0.447-1-1-1h-5l-1.65-1.65c2.399-0.988,4.588-2.386,6.476-4.11L60.586,62H50v-5C50,56.447,49.553,56,49,56z"/>
</g>
</svg>
