<?xml version="1.0" encoding="utf-8"?>
<!-- Generator: Adobe Illustrator 16.0.0, SVG Export Plug-In . SVG Version: 6.00 Build 0)  -->
<!DOCTYPE svg PUBLIC "-//W3C//DTD SVG 1.0//EN" "http://www.w3.org/TR/2001/REC-SVG-20010904/DTD/svg10.dtd">
<svg version="1.0" id="Layer_1" xmlns="http://www.w3.org/2000/svg" xmlns:xlink="http://www.w3.org/1999/xlink" x="0px" y="0px"
	 width="64px" height="64px" viewBox="0 0 64 64" enable-background="new 0 0 64 64" xml:space="preserve">
<path fill="#231F20" d="M56.649,52.405C61.239,46.866,64,39.756,64,32c0-7.755-2.76-14.865-7.35-20.404l0.101-0.101
	c0.389-0.393,0.389-1.025,0-1.415l-2.83-2.829c-0.391-0.392-1.021-0.393-1.414,0l-0.101,0.101C46.867,2.761,39.756,0,32,0
	c-7.755,0-14.865,2.76-20.403,7.35l-0.101-0.101c-0.392-0.391-1.024-0.391-1.415,0l-2.829,2.829
	C6.86,10.47,6.86,11.101,7.253,11.493l0.1,0.1C2.761,17.132,0,24.243,0,32c0,7.756,2.761,14.866,7.351,20.405l-0.1,0.1
	c-0.391,0.392-0.391,1.023,0,1.414l2.829,2.829c0.391,0.391,1.022,0.392,1.414,0l0.1-0.1C17.133,61.239,24.244,64,32,64
	s14.866-2.761,20.405-7.351l0.1,0.1c0.393,0.389,1.025,0.391,1.415,0l2.829-2.83c0.392-0.391,0.393-1.021,0-1.414L56.649,52.405z
	 M52.488,53.903L52.488,53.903L41.159,42.571l0,0l-0.673-0.673l1.415-1.413l0.672,0.672l12.055,12.055l-1.416,1.416L52.488,53.903z
	 M32,43.999c-2.252,0-4.352-0.632-6.152-1.711c0.153-0.364,0.085-0.799-0.212-1.096l-2.828-2.829
	c-0.297-0.297-0.732-0.365-1.096-0.212c-1.08-1.801-1.712-3.9-1.712-6.152s0.632-4.352,1.712-6.153
	c0.364,0.153,0.798,0.085,1.095-0.211l2.83-2.828c0.297-0.296,0.366-0.733,0.211-1.097c1.801-1.079,3.9-1.711,6.152-1.711
	c2.253,0,4.353,0.633,6.153,1.712c-0.152,0.363-0.084,0.798,0.212,1.095l2.827,2.83c0.297,0.297,0.732,0.365,1.097,0.211
	c1.079,1.801,1.711,3.9,1.711,6.152s-0.632,4.352-1.712,6.152c-0.363-0.152-0.798-0.083-1.094,0.213l-2.83,2.826
	c-0.297,0.298-0.365,0.732-0.211,1.097C36.353,43.366,34.252,43.999,32,43.999z M10.787,54.627l-1.415-1.415l12.054-12.053l0,0
	l0.675-0.675l1.414,1.415l-0.674,0.674L10.787,54.627z M9.373,10.787l1.415-1.417l0.724,0.725l0,0l11.329,11.33l0,0l0.674,0.674
	L22.1,23.514l-0.674-0.674L9.373,10.787z M53.904,11.511l-11.331,11.33l0,0L41.9,23.514l-1.414-1.415l0.673-0.673l11.33-11.33
	l0.724-0.724l1.417,1.414L53.904,11.511L53.904,11.511z M43.775,39.532c0.373-0.58,0.704-1.189,0.989-1.823l15.072,5.485
	c-1.143,2.836-2.712,5.451-4.618,7.78L43.775,39.532z M60.515,41.313l-15.053-5.479C45.811,34.616,46,33.33,46,31.999
	c0-1.332-0.189-2.617-0.538-3.836l15.053-5.479C61.474,25.617,62,28.745,62,31.999S61.474,38.381,60.515,41.313z M59.837,20.804
	l-15.072,5.485c-0.285-0.634-0.616-1.242-0.988-1.822L55.22,13.025C57.126,15.354,58.694,17.969,59.837,20.804z M39.534,20.224
	c-0.581-0.374-1.189-0.704-1.824-0.99l5.486-15.071c2.835,1.143,5.45,2.713,7.78,4.619L39.534,20.224z M41.314,3.484l-5.479,15.052
	c-1.219-0.35-2.505-0.538-3.837-0.538c-1.331,0-2.617,0.188-3.836,0.538L22.686,3.484C25.618,2.525,28.746,1.999,32,1.999
	S38.382,2.525,41.314,3.484z M20.804,4.161l5.486,15.072c-0.635,0.285-1.243,0.615-1.824,0.989L13.026,8.779
	C15.354,6.874,17.97,5.305,20.804,4.161z M20.223,24.465c-0.373,0.581-0.703,1.188-0.989,1.823l-15.07-5.484
	c1.143-2.836,2.713-5.451,4.619-7.781L20.223,24.465z M3.485,22.685l15.051,5.479c-0.349,1.219-0.538,2.504-0.538,3.836
	s0.189,2.617,0.538,3.837L3.485,41.313C2.526,38.381,2,35.253,2,31.999S2.526,25.617,3.485,22.685z M4.163,43.194l15.07-5.484
	c0.286,0.635,0.616,1.243,0.989,1.824L8.782,50.974C6.876,48.646,5.306,46.03,4.163,43.194z M24.467,43.776
	c0.58,0.373,1.188,0.703,1.823,0.988l-5.486,15.071c-2.835-1.143-5.45-2.712-7.779-4.618L24.467,43.776z M22.686,60.514
	l5.479-15.052C29.382,45.812,30.668,46,31.999,46c1.332,0,2.618-0.188,3.837-0.538l5.479,15.052
	c-2.933,0.959-6.061,1.485-9.314,1.485C28.747,61.999,25.618,61.473,22.686,60.514z M43.196,59.837L37.71,44.765
	c0.635-0.286,1.243-0.617,1.824-0.99l11.44,11.443C48.646,57.124,46.03,58.693,43.196,59.837z"/>
</svg>
