<?xml version="1.0" encoding="utf-8"?>
<!-- Generator: Adobe Illustrator 16.0.0, SVG Export Plug-In . SVG Version: 6.00 Build 0)  -->
<!DOCTYPE svg PUBLIC "-//W3C//DTD SVG 1.0//EN" "http://www.w3.org/TR/2001/REC-SVG-20010904/DTD/svg10.dtd">
<svg version="1.0" id="Layer_1" xmlns="http://www.w3.org/2000/svg" xmlns:xlink="http://www.w3.org/1999/xlink" x="0px" y="0px"
	 width="64px" height="64px" viewBox="0 0 64 64" enable-background="new 0 0 64 64" xml:space="preserve">
<g>
	<path fill="#231F20" d="M56,24C56,10.745,45.255,0,32,0S8,10.745,8,24c0,9.683,5.743,18.006,14,21.8V60c0,2.211,1.789,4,4,4h12
		c2.211,0,4-1.789,4-4V45.8C50.257,42.006,56,33.683,56,24z M40,60c0,1.104-0.896,2-2,2H26c-1.104,0-2-0.896-2-2v-2h16V60z M40,56
		H24v-4h16V56z M40,50H24v-4h16V50z M34,44h-4V25c0-1.104,0.896-2,2-2s2,0.896,2,2V44z M41.15,44H36V25c0-1.104,0.896-2,2-2
		s2,0.896,2,2c0,0.553,0.447,1,1,1s1-0.447,1-1c0-2.209-1.791-4-4-4c-1.201,0-2.267,0.541-3,1.38C34.267,21.541,33.201,21,32,21
		s-2.267,0.541-3,1.38C28.267,21.541,27.201,21,26,21c-2.209,0-4,1.791-4,4c0,0.553,0.447,1,1,1s1-0.447,1-1c0-1.104,0.896-2,2-2
		s2,0.896,2,2v19h-5.15C15.271,40.525,10,32.883,10,24c0-12.15,9.85-22,22-22s22,9.85,22,22C54,32.883,48.729,40.526,41.15,44z"/>
	<path fill="#231F20" d="M32,6c-0.553,0-1,0.447-1,1s0.447,1,1,1c4.418,0,8.418,1.791,11.313,4.687c0,0,0.944,1.056,1.687,0.313
		s-0.271-1.729-0.271-1.729C41.471,8.015,36.971,6,32,6z"/>
</g>
</svg>
