<?xml version="1.0" encoding="utf-8"?>
<!-- Generator: Adobe Illustrator 16.0.0, SVG Export Plug-In . SVG Version: 6.00 Build 0)  -->
<!DOCTYPE svg PUBLIC "-//W3C//DTD SVG 1.0//EN" "http://www.w3.org/TR/2001/REC-SVG-20010904/DTD/svg10.dtd">
<svg version="1.0" id="Layer_1" xmlns="http://www.w3.org/2000/svg" xmlns:xlink="http://www.w3.org/1999/xlink" x="0px" y="0px"
	 width="64px" height="64px" viewBox="0 0 64 64" enable-background="new 0 0 64 64" xml:space="preserve">
<g>
	<path fill="#231F20" d="M62.242,47.758l0.014-0.014c-5.847-4.753-12.84-8.137-20.491-9.722C44.374,35.479,46,31.932,46,28
		c1.657,0,3-1.343,3-3v-2c0-0.886-0.391-1.673-1-2.222V12c0-6.627-5.373-12-12-12h-8c-6.627,0-12,5.373-12,12v8.778
		c-0.609,0.549-1,1.336-1,2.222v2c0,1.657,1.343,3,3,3c0,3.932,1.626,7.479,4.236,10.022c-7.652,1.586-14.646,4.969-20.492,9.722
		l0.014,0.014C0.672,48.844,0,50.344,0,52v8c0,2.211,1.789,4,4,4h56c2.211,0,4-1.789,4-4v-8C64,50.344,63.328,48.844,62.242,47.758z
		 M18,12c0-5.522,4.478-10,10-10h8c5.522,0,10,4.478,10,10v7c0-3.313-2.687-6-6-6h-6c-2.209,0-4-1.791-4-4c0-0.553-0.447-1-1-1
		s-1,0.447-1,1c0,2.209-1.791,4-4,4c-3.313,0-6,2.687-6,6V12z M20,28v-1c0-0.553-0.447-1-1-1h-1c-0.553,0-1-0.447-1-1v-2
		c0-0.553,0.447-1,1-1h1c0.553,0,1-0.447,1-1v-2c0-2.209,1.791-4,4-4c2.088,0,3.926-1.068,5-2.687C30.074,13.932,31.912,15,34,15h6
		c2.209,0,4,1.791,4,4v2c0,0.553,0.447,1,1,1h1c0.553,0,1,0.447,1,1v2c0,0.553-0.447,1-1,1h-1c-0.553,0-1,0.447-1,1v1
		c0,6.627-5.373,12-12,12S20,34.627,20,28z M32,42c2.853,0,5.502-0.857,7.715-2.322c1.66,0.281,3.297,0.63,4.892,1.084
		C41.355,43.983,36.911,46,31.973,46c-4.932,0-9.371-2.011-12.621-5.226c1.608-0.459,3.259-0.813,4.934-1.097
		C26.498,41.143,29.147,42,32,42z M62,60c0,1.104-0.896,2-2,2H4c-1.104,0-2-0.896-2-2v-8c0-1.104,0.447-2.104,1.172-2.828
		l-0.004-0.004c4.148-3.343,8.896-5.964,14.046-7.714C20.869,45.467,26.117,48,31.973,48c5.862,0,11.115-2.538,14.771-6.56
		c5.167,1.75,9.929,4.376,14.089,7.728l-0.004,0.004C61.553,49.896,62,50.896,62,52V60z"/>
	<path fill="#231F20" d="M24.537,21.862c0.475,0.255,1.073,0.068,1.345-0.396C25.91,21.419,26.18,21,26.998,21
		c0.808,0,1.096,0.436,1.111,0.458C28.287,21.803,28.637,22,28.999,22c0.154,0,0.311-0.035,0.457-0.111
		c0.491-0.253,0.684-0.856,0.431-1.347C29.592,19.969,28.651,19,26.998,19c-1.691,0-2.618,0.983-2.9,1.564
		C23.864,21.047,24.063,21.609,24.537,21.862z"/>
	<path fill="#231F20" d="M34.539,21.862c0.475,0.255,1.073,0.068,1.345-0.396C35.912,21.419,36.182,21,37,21
		c0.808,0,1.096,0.436,1.111,0.458C38.289,21.803,38.639,22,39.001,22c0.154,0,0.311-0.035,0.457-0.111
		c0.491-0.253,0.684-0.856,0.431-1.347C39.594,19.969,38.653,19,37,19c-1.691,0-2.618,0.983-2.9,1.564
		C33.866,21.047,34.065,21.609,34.539,21.862z"/>
</g>
</svg>
