<?xml version="1.0" encoding="utf-8"?>
<!-- Generator: Adobe Illustrator 16.0.0, SVG Export Plug-In . SVG Version: 6.00 Build 0)  -->
<!DOCTYPE svg PUBLIC "-//W3C//DTD SVG 1.0//EN" "http://www.w3.org/TR/2001/REC-SVG-20010904/DTD/svg10.dtd">
<svg version="1.0" id="Layer_1" xmlns="http://www.w3.org/2000/svg" xmlns:xlink="http://www.w3.org/1999/xlink" x="0px" y="0px"
	 width="64px" height="64px" viewBox="0 0 64 64" enable-background="new 0 0 64 64" xml:space="preserve">
<path fill="#231F20" d="M63.442,12.385c0.556-0.578,0.712-1.432,0.397-2.169S62.802,9,62,9h-6.585l2.292-2.291
	c0.391-0.392,0.391-1.024,0-1.415c-0.392-0.392-1.024-0.392-1.415-0.001L52.585,9H21.81C20.868,3.881,16.392,0,11,0
	C4.925,0,0,4.924,0,11c0,6.075,4.925,11,11,11c2.571,0,4.932-0.889,6.805-2.367L34,35.828V58h-8c-1.104,0-2,0.896-2,2v4h26v-4
	c0-1.104-0.896-2-2-2h-8V35.827L63.442,12.385z M36,37.723C36.303,37.898,36.645,38,37,38c0.007,0,0.014,0,0.021,0
	c0.349-0.004,0.683-0.107,0.979-0.279V58h-2V37.723z M38.614,20.143c-1.252,1.252-1.694,2.862-1.247,4.075l-2.289,2.289
	c-0.391,0.391-0.391,1.023,0,1.414s1.023,0.391,1.414,0l2.289-2.289c1.213,0.447,2.824,0.006,4.076-1.246s1.693-2.863,1.246-4.074
	L47.415,17H56L37,36L18,17h26.585l-1.896,1.896C41.477,18.448,39.866,18.891,38.614,20.143z M41.443,22.972
	c-0.863,0.864-1.833,0.995-2.121,0.707c-0.289-0.289-0.157-1.259,0.706-2.122s1.833-0.995,2.122-0.706
	C42.438,21.139,42.307,22.108,41.443,22.972z M62,11l-4,4h-8.585l4-4H62z M50.585,11l-4,4H16l-4-4H50.585z M11,20
	c-4.971,0-9-4.029-9-9s4.029-9,9-9c4.282,0,7.859,2.993,8.77,7H12c-0.809,0-1.538,0.487-1.848,1.234
	c-0.31,0.748-0.139,1.607,0.434,2.18l5.791,5.791C14.876,19.327,13.019,20,11,20z M47,60c0.553,0,1,0.447,1,1v1H26v-1
	c0-0.553,0.447-1,1-1H47z"/>
</svg>
