<?xml version="1.0" encoding="utf-8"?>
<!-- Generator: Adobe Illustrator 16.0.0, SVG Export Plug-In . SVG Version: 6.00 Build 0)  -->
<!DOCTYPE svg PUBLIC "-//W3C//DTD SVG 1.0//EN" "http://www.w3.org/TR/2001/REC-SVG-20010904/DTD/svg10.dtd">
<svg version="1.0" id="Layer_1" xmlns="http://www.w3.org/2000/svg" xmlns:xlink="http://www.w3.org/1999/xlink" x="0px" y="0px"
	 width="64px" height="64px" viewBox="0 0 64 64" enable-background="new 0 0 64 64" xml:space="preserve">
<g>
	<path fill="#231F20" d="M60,40H35V23c0-1.656-1.344-3-3-3s-3,1.344-3,3v17H4c-2.211,0-4,1.789-4,4v16c0,2.211,1.789,4,4,4h56
		c2.211,0,4-1.789,4-4V44C64,41.789,62.211,40,60,40z M31,23c0-0.553,0.447-1,1-1s1,0.447,1,1v17h-2V23z M41,62H4
		c-1.104,0-2-0.896-2-2V44c0-1.104,0.896-2,2-2h37V62z M62,60c0,1.104-0.896,2-2,2H43V42h17c1.104,0,2,0.896,2,2V60z"/>
	<path fill="#231F20" d="M52,49c-1.657,0-3,1.344-3,3s1.343,3,3,3s3-1.344,3-3S53.657,49,52,49z M52,53c-0.553,0-1-0.447-1-1
		s0.447-1,1-1s1,0.447,1,1S52.553,53,52,53z"/>
	<path fill="#231F20" d="M22,55c1.657,0,3-1.344,3-3s-1.343-3-3-3s-3,1.344-3,3S20.343,55,22,55z M22,51c0.553,0,1,0.447,1,1
		s-0.447,1-1,1s-1-0.447-1-1S21.447,51,22,51z"/>
	<path fill="#231F20" d="M12,55c1.657,0,3-1.344,3-3s-1.343-3-3-3s-3,1.344-3,3S10.343,55,12,55z M12,51c0.553,0,1,0.447,1,1
		s-0.447,1-1,1s-1-0.447-1-1S11.447,51,12,51z"/>
	<path fill="#231F20" d="M32,55c1.657,0,3-1.344,3-3s-1.343-3-3-3s-3,1.344-3,3S30.343,55,32,55z M32,51c0.553,0,1,0.447,1,1
		s-0.447,1-1,1s-1-0.447-1-1S31.447,51,32,51z"/>
	<path fill="#231F20" d="M32,10c-7.18,0-13,5.82-13,13c0,1.656,1.343,3,3,3s3-1.344,3-3c0-3.866,3.134-7,7-7s7,3.134,7,7
		c0,1.656,1.343,3,3,3s3-1.344,3-3C45,15.82,39.18,10,32,10z M42,24c-0.553,0-1-0.447-1-1c0-4.971-4.029-9-9-9s-9,4.029-9,9
		c0,0.553-0.447,1-1,1s-1-0.447-1-1c0-6.075,4.925-11,11-11s11,4.925,11,11C43,23.553,42.553,24,42,24z"/>
	<path fill="#231F20" d="M12,26c1.657,0,3-1.344,3-3c0-9.389,7.611-17,17-17s17,7.611,17,17c0,1.656,1.343,3,3,3s3-1.344,3-3
		C55,10.297,44.702,0,32,0S9,10.297,9,23C9,24.656,10.343,26,12,26z M32,2c11.598,0,21,9.402,21,21c0,0.553-0.447,1-1,1
		s-1-0.447-1-1c0-10.493-8.507-19-19-19s-19,8.507-19,19c0,0.553-0.447,1-1,1s-1-0.447-1-1C11,11.402,20.402,2,32,2z"/>
</g>
</svg>
