<?xml version="1.0" encoding="utf-8"?>
<!-- Generator: Adobe Illustrator 16.0.0, SVG Export Plug-In . SVG Version: 6.00 Build 0)  -->
<!DOCTYPE svg PUBLIC "-//W3C//DTD SVG 1.0//EN" "http://www.w3.org/TR/2001/REC-SVG-20010904/DTD/svg10.dtd">
<svg version="1.0" id="Layer_1" xmlns="http://www.w3.org/2000/svg" xmlns:xlink="http://www.w3.org/1999/xlink" x="0px" y="0px"
	 width="64px" height="64px" viewBox="0 0 64 64" enable-background="new 0 0 64 64" xml:space="preserve">
<path fill="#ffffff" d="M63.414,23.414c0.781-0.781,0.781-2.047,0-2.828l-20-20C43.023,0.195,42.512,0,42,0
	s-1.023,0.195-1.414,0.586l-12,12c-1.381,1.381-3.547,2.081-6.438,2.081c-5.429,0-11.304-2.48-11.362-2.506
	C10.534,12.054,10.267,12,10,12c-0.332,0-0.662,0.082-0.96,0.246c-0.538,0.295-0.912,0.82-1.013,1.425l-8,48
	c-0.106,0.638,0.102,1.286,0.559,1.743C0.964,63.792,1.474,64,2,64c0.109,0,0.219-0.009,0.329-0.027l48-8
	c0.605-0.101,1.131-0.475,1.426-1.013c0.295-0.539,0.325-1.184,0.083-1.748c-1.521-3.548-4.561-13.661-0.424-17.798L63.414,23.414z
	 M50.707,33.293l-20-20l0,0l1.586-1.586l0,0l20,20L50.707,33.293z M41.998,2c0,0,0.001,0,0.002,0l20,20l-8.293,8.293l-20-20l0,0
	L41.998,2z M47.52,44.78c0.442,3.563,1.571,7.099,2.48,9.22L3.698,61.717l20.549-20.55C25.038,41.691,25.982,42,27,42
	c2.757,0,5-2.243,5-5s-2.243-5-5-5s-5,2.243-5,5c0,1.018,0.309,1.963,0.833,2.753L2.282,60.305l7.709-46.309
	c0.062,0.027,6.233,2.671,12.157,2.671c2.988,0,5.372-0.679,7.107-2.017c0.015,0.018,0.021,0.04,0.037,0.057l20,20
	c0.02,0.02,0.045,0.025,0.064,0.043C47.599,37.024,46.975,40.386,47.52,44.78z M24,37c0-1.654,1.346-3,3-3s3,1.346,3,3s-1.346,3-3,3
	S24,38.654,24,37z"/>
</svg>
