<?xml version="1.0" encoding="utf-8"?>
<!-- Generator: Adobe Illustrator 16.0.0, SVG Export Plug-In . SVG Version: 6.00 Build 0)  -->
<!DOCTYPE svg PUBLIC "-//W3C//DTD SVG 1.0//EN" "http://www.w3.org/TR/2001/REC-SVG-20010904/DTD/svg10.dtd">
<svg version="1.0" id="Layer_1" xmlns="http://www.w3.org/2000/svg" xmlns:xlink="http://www.w3.org/1999/xlink" x="0px" y="0px"
	 width="64px" height="64px" viewBox="0 0 64 64" enable-background="new 0 0 64 64" xml:space="preserve">
<path fill="#231F20" d="M60,0H4C1.789,0,0,1.789,0,4v56c0,2.211,1.789,4,4,4h56c2.211,0,4-1.789,4-4V4C64,1.789,62.211,0,60,0z
	 M51,2v38h-6V2H51z M35,2v38h-6V2H35z M19,2v38h-6V2H19z M4,62c-1.104,0-2-0.896-2-2V4c0-1.104,0.641-2,2-2h7v39
	c0,0.553,0.447,1,1,1h3v20H4z M17,62V42h3c0.553,0,1-0.447,1-1V2h6v39c0,0.553,0.447,1,1,1h3v20H17z M33,62V42h3
	c0.553,0,1-0.447,1-1V2h6v39c0,0.553,0.447,1,1,1h3v20H33z M62,60c0,1.104-0.896,2-2,2H49V42h3c0.553,0,1-0.447,1-1V2h7
	c1.016,0,2,0.896,2,2V60z"/>
</svg>
