<?xml version="1.0" encoding="utf-8"?>
<!-- Generator: Adobe Illustrator 16.0.0, SVG Export Plug-In . SVG Version: 6.00 Build 0)  -->
<!DOCTYPE svg PUBLIC "-//W3C//DTD SVG 1.0//EN" "http://www.w3.org/TR/2001/REC-SVG-20010904/DTD/svg10.dtd">
<svg version="1.0" id="Layer_1" xmlns="http://www.w3.org/2000/svg" xmlns:xlink="http://www.w3.org/1999/xlink" x="0px" y="0px"
	 width="64px" height="64px" viewBox="0 0 64 64" enable-background="new 0 0 64 64" xml:space="preserve">
<g>
	<path d="M64,20C64,8.953,55.047,0,44,0c-5.449,0-10.375,2.191-13.98,5.723L30,5.703L5.879,29.84C2.25,33.461,0,38.465,0,44
		c0,11.047,8.953,20,20,20c5.535,0,10.539-2.25,14.16-5.879L58.297,34l-0.02-0.02C61.809,30.375,64,25.445,64,20z M32.744,56.709
		C29.34,60.121,24.813,62,20,62c-9.925,0-18-8.074-18-18c0-4.813,1.879-9.34,5.294-12.746l11.27-11.276l25.46,25.46L32.744,56.709z
		 M45.438,44.023L19.977,18.562c0,0,11.366-11.337,11.442-11.411C34.811,3.83,39.278,2,44,2c9.925,0,18,8.074,18,18
		c0,4.721-1.829,9.189-5.151,12.581C56.775,32.656,45.438,44.023,45.438,44.023z"/>
	<path d="M44,6c-0.553,0-1,0.447-1,1s0.447,1,1,1c6.627,0,12,5.373,12,12c0,0.553,0.447,1,1,1s1-0.447,1-1C58,12.268,51.732,6,44,6z
		"/>
</g>
</svg>
