<?xml version="1.0" encoding="utf-8"?>
<!-- Generator: Adobe Illustrator 16.0.0, SVG Export Plug-In . SVG Version: 6.00 Build 0)  -->
<!DOCTYPE svg PUBLIC "-//W3C//DTD SVG 1.0//EN" "http://www.w3.org/TR/2001/REC-SVG-20010904/DTD/svg10.dtd">
<svg version="1.0" id="Layer_1" xmlns="http://www.w3.org/2000/svg" xmlns:xlink="http://www.w3.org/1999/xlink" x="0px" y="0px"
	 width="64px" height="64px" viewBox="0 0 64 64" enable-background="new 0 0 64 64" xml:space="preserve">
<path fill="#231F20" d="M62.743,26.143l-22.099-8.84l0.349-3.137c0.065-0.781,0.532-7.749-3.061-11.654C36.42,0.868,34.369,0,32,0
	s-4.42,0.868-5.933,2.512c-3.593,3.905-3.126,10.873-3.055,11.709l0.37,3.334l-22.178,9.61C0.474,27.481,0,28.203,0,29v5
	c0,1.104,0.896,2,2,2h23.433l1.499,13.494l-6.181,4.944C20.276,54.817,20,55.393,20,56v2c0,1.104,0.896,2,2,2h6.13
	c0.416,2.101,1.695,4,3.87,4c2.186,0,3.465-1.916,3.871-4H42c1.104,0,2-0.896,2-2v-2c0-0.607-0.276-1.183-0.751-1.562l-6.181-4.944
	L38.567,36H62c1.104,0,2-0.896,2-2v-6C64,27.183,63.502,26.446,62.743,26.143z M2,29l21.614-9.366L24.766,30H2V29z M25.21,34H2v-2
	h22.988L25.21,34z M22,58v-2l5.193-4.154L27.877,58H22z M42,56v2h-5.877l0.684-6.154L42,56z M33.995,59.042
	C33.903,60.064,33.368,62,32,62c-1.367,0-1.906-1.963-2.005-3.04l-4.991-44.933c-0.041-0.508-0.483-6.881,2.535-10.161
	C28.679,2.628,30.18,2,32,2s3.321,0.628,4.461,1.866c3.008,3.27,2.581,9.596,2.541,10.108L33.995,59.042z M62,34H38.789l0.223-2H62
	V34z M62,30H39.234l1.181-10.634L62,28V30z"/>
</svg>
