<?xml version="1.0" encoding="utf-8"?>
<!-- Generator: Adobe Illustrator 16.0.0, SVG Export Plug-In . SVG Version: 6.00 Build 0)  -->
<!DOCTYPE svg PUBLIC "-//W3C//DTD SVG 1.0//EN" "http://www.w3.org/TR/2001/REC-SVG-20010904/DTD/svg10.dtd">
<svg version="1.0" id="Layer_1" xmlns="http://www.w3.org/2000/svg" xmlns:xlink="http://www.w3.org/1999/xlink" x="0px" y="0px"
	 width="64px" height="64px" viewBox="0 0 64 64" enable-background="new 0 0 64 64" xml:space="preserve">
<g>
	<path fill="#231F20" d="M60,13.999L47.279,14C48.944,12.534,50,10.393,50,8c0-4.418-3.582-8-8-8s-8,3.582-8,8v6h-4V8
		c0-4.418-3.582-8-8-8s-8,3.582-8,8c0,2.393,1.056,4.534,2.721,6L4,13.999c-2.211,0-4,1.79-4,4v8c0,2.211,1.789,4,4,4v30
		c0,2.211,1.789,4,4,4h48c2.211,0,4-1.789,4-4v-30c2.211,0,4-1.789,4-4v-8C64,15.789,62.211,13.999,60,13.999z M28,61.999H8
		c-1.104,0-2-0.896-2-2v-30h22V61.999z M28,27.999H4c-1.104,0-2-0.896-2-2v-8c0-1.104,0.896-2,2-2h24V27.999z M22,14
		c-3.313,0-6-2.687-6-6s2.687-6,6-6s6,2.687,6,6v6H22z M34,61.999h-4v-32h4V61.999z M34,27.999h-4v-12h4V27.999z M36,8
		c0-3.313,2.687-6,6-6s6,2.687,6,6s-2.687,6-6,6h-6V8z M58,59.999c0,1.104-0.896,2-2,2H36v-32h22V59.999z M62,25.999
		c0,1.104-0.896,2-2,2H36v-12h24c1.104,0,2,0.896,2,2V25.999z"/>
	<path fill="#231F20" d="M22,3.999c-2.209,0-4,1.791-4,4c0,2.21,1.791,4,4,4h2h2v-4C26,5.79,24.209,3.999,22,3.999z M24,9.999h-2
		c-1.104,0-2-0.896-2-2s0.896-2,2-2s2,0.896,2,2V9.999z"/>
	<path fill="#231F20" d="M46,7.999c0-2.209-1.791-4-4-4s-4,1.791-4,4v4h2h2C44.209,11.999,46,10.209,46,7.999z M40,7.999
		c0-1.104,0.896-2,2-2s2,0.896,2,2s-0.896,2-2,2h-2V7.999z"/>
</g>
</svg>
