<?xml version="1.0" encoding="utf-8"?>
<!-- Generator: Adobe Illustrator 16.0.0, SVG Export Plug-In . SVG Version: 6.00 Build 0)  -->
<!DOCTYPE svg PUBLIC "-//W3C//DTD SVG 1.0//EN" "http://www.w3.org/TR/2001/REC-SVG-20010904/DTD/svg10.dtd">
<svg version="1.0" id="Layer_1" xmlns="http://www.w3.org/2000/svg" xmlns:xlink="http://www.w3.org/1999/xlink" x="0px" y="0px"
	 width="64px" height="64px" viewBox="0 0 64 64" enable-background="new 0 0 64 64" xml:space="preserve">
<g>
	<path fill="#231F20" d="M60,3.999H35v-1c0-1.657-1.343-3-3-3s-3,1.343-3,3v1H4c-2.211,0-4,1.789-4,4v38c0,2.211,1.789,4,4,4h19.888
		l-5.485,9.5c-0.829,1.435-0.338,3.27,1.098,4.098s3.27,0.337,4.098-1.098l7.217-12.5h2.37l7.217,12.5
		c0.829,1.436,2.663,1.927,4.099,1.098c1.436-0.828,1.926-2.662,1.098-4.098l-5.485-9.5H60c2.211,0,4-1.789,4-4v-38
		C64,5.788,62.211,3.999,60,3.999z M31,2.999c0-0.553,0.447-1,1-1s1,0.447,1,1v1h-2V2.999z M21.866,61.499
		c-0.276,0.479-0.888,0.643-1.366,0.365c-0.479-0.275-0.643-0.887-0.365-1.365l6.062-10.5h2.309L21.866,61.499z M43.865,60.499
		c0.277,0.479,0.113,1.09-0.365,1.366s-1.09,0.112-1.366-0.366l-6.64-11.5h2.309L43.865,60.499z M62,45.999c0,1.104-0.896,2-2,2H4
		c-1.104,0-2-0.896-2-2v-38c0-1.104,0.896-2,2-2h56c1.104,0,2,0.896,2,2V45.999z"/>
	<path fill="#231F20" d="M35,17.999h-6c-0.553,0-1,0.447-1,1v25h8v-25C36,18.446,35.553,17.999,35,17.999z M34,41.999h-4v-8h4
		V41.999z M34,31.999h-4v-12h4V31.999z"/>
	<path fill="#231F20" d="M47,9.999h-6c-0.553,0-1,0.447-1,1v33h8v-33C48,10.446,47.553,9.999,47,9.999z M46,41.999h-4v-10h4V41.999z
		 M46,29.999h-4v-18h4V29.999z"/>
	<path fill="#231F20" d="M23,25.999h-6c-0.553,0-1,0.447-1,1v17h8v-17C24,26.446,23.553,25.999,23,25.999z M22,41.999h-4v-6h4
		V41.999z M22,33.999h-4v-6h4V33.999z"/>
</g>
</svg>
