<?xml version="1.0" encoding="utf-8"?>
<!-- Generator: Adobe Illustrator 16.0.0, SVG Export Plug-In . SVG Version: 6.00 Build 0)  -->
<!DOCTYPE svg PUBLIC "-//W3C//DTD SVG 1.0//EN" "http://www.w3.org/TR/2001/REC-SVG-20010904/DTD/svg10.dtd">
<svg version="1.0" id="Layer_1" xmlns="http://www.w3.org/2000/svg" xmlns:xlink="http://www.w3.org/1999/xlink" x="0px" y="0px"
	 width="64px" height="64px" viewBox="0 0 64 64" enable-background="new 0 0 64 64" xml:space="preserve">
<g>
	<path fill="#231F20" d="M31.293,32.716c0.391,0.391,1.023,0.391,1.414,0l5.84-5.841C39.271,26.151,40,25.104,40,24
		c0-2.209-1.791-4-4-4c-1.104,0-2.104,0.448-2.828,1.172L32,22.336l-1.172-1.164C30.104,20.448,29.104,20,28,20
		c-2.209,0-4,1.791-4,4c0,1.104,0.713,2.136,1.438,2.859L31.293,32.716z M28,22c0.553,0,1.053,0.224,1.414,0.586l1.879,1.871
		c0.391,0.391,1.023,0.391,1.414,0l1.879-1.871C34.947,22.224,35.447,22,36,22c1.104,0,2,0.896,2,2c0,0.553-0.481,1.076-0.844,1.438
		L32,30.594l-5.156-5.156C26.481,25.076,26,24.553,26,24C26,22.896,26.896,22,28,22z"/>
	<path fill="#231F20" d="M52,0H12C9.771,0,8,1.813,8,4v57c0,1.238,0.761,2.35,1.915,2.797s2.466,0.14,3.301-0.774L31.013,45
		c0,0,0.394-0.5,0.987-0.5s0.989,0.502,0.989,0.502l17.795,18.021c0.58,0.636,1.39,0.978,2.217,0.978
		c0.363,0,0.731-0.066,1.084-0.203C55.239,63.35,56,62.238,56,61V4C56,1.852,54.189,0,52,0z M54,60.5
		c0,0.781-1.172,1.469-2.001,0.641C51.351,60.492,34,43.156,34,43.156s-0.729-0.91-2-0.91c-1.249,0-2,0.957-2,0.957
		S12.938,60.359,12.148,61.148S10,61.328,10,60.504c0-0.815,0-32.01,0-48.504h44C54,28.411,54,59.376,54,60.5z M54,10H10
		c0-2.53,0-4.602,0-6c0-1.104,0.896-2,2-2h40c1.104,0,2,0.896,2,2C54,5.398,54,7.47,54,10z"/>
</g>
</svg>
