<?xml version="1.0" encoding="utf-8"?>
<!-- Generator: Adobe Illustrator 16.0.0, SVG Export Plug-In . SVG Version: 6.00 Build 0)  -->
<!DOCTYPE svg PUBLIC "-//W3C//DTD SVG 1.0//EN" "http://www.w3.org/TR/2001/REC-SVG-20010904/DTD/svg10.dtd">
<svg version="1.0" id="Layer_1" xmlns="http://www.w3.org/2000/svg" xmlns:xlink="http://www.w3.org/1999/xlink" x="0px" y="0px"
	 width="64px" height="64px" viewBox="0 0 64 64" enable-background="new 0 0 64 64" xml:space="preserve">
<g>
	<path fill="#231F20" d="M62.839,17.992L46.021,1.174c-1.551-1.549-4.058-1.549-5.606,0L1.173,40.414
		c-1.547,1.551-1.547,4.057,0,5.607L17.99,62.838c1.55,1.549,4.059,1.549,5.608,0l39.24-39.24
		C64.387,22.049,64.387,19.541,62.839,17.992z M61.437,22.196l-39.24,39.241c-0.774,0.774-2.029,0.774-2.804,0L2.575,44.619
		c-0.774-0.773-0.774-2.03-0.001-2.804l2.104-2.101l2.803,2.802c0.387,0.389,1.014,0.389,1.402,0
		c0.387-0.386,0.387-1.013-0.001-1.399l-2.803-2.805l2.803-2.803l5.605,5.607c0.389,0.387,1.015,0.387,1.401,0
		c0.388-0.389,0.388-1.016,0-1.402l-5.604-5.605l2.802-2.804l2.803,2.804c0.388,0.386,1.015,0.386,1.402,0
		c0.386-0.389,0.386-1.014,0-1.402l-2.804-2.803l2.804-2.803l2.802,2.803c0.389,0.388,1.014,0.388,1.403,0
		c0.386-0.387,0.386-1.014,0-1.402l-2.805-2.803l2.805-2.802l5.605,5.605c0.387,0.388,1.014,0.388,1.401,0s0.388-1.014,0-1.401
		l-5.605-5.605l2.801-2.805l2.805,2.804c0.388,0.387,1.015,0.387,1.4,0.001c0.389-0.389,0.389-1.016,0-1.402l-2.803-2.803
		l2.803-2.803l2.804,2.803c0.386,0.387,1.014,0.387,1.401,0c0.387-0.387,0.387-1.015,0-1.401l-2.803-2.804l2.803-2.801l5.605,5.604
		c0.388,0.387,1.015,0.387,1.401,0c0.388-0.388,0.388-1.015,0-1.401l-5.606-5.606l2.804-2.802l2.803,2.802
		c0.388,0.388,1.015,0.388,1.401,0c0.388-0.388,0.388-1.015,0-1.401l-2.803-2.802l2.102-2.104c0.774-0.772,2.03-0.772,2.804,0
		l16.817,16.817C62.211,20.167,62.211,21.423,61.437,22.196z"/>
	<path fill="#231F20" d="M51.007,17.006c-2.209,0-4,1.791-4,4s1.791,4,4,4s4-1.791,4-4S53.216,17.006,51.007,17.006z M51.007,23.006
		c-1.104,0-2-0.896-2-2s0.896-2,2-2s2,0.896,2,2S52.111,23.006,51.007,23.006z"/>
</g>
</svg>
