<?xml version="1.0" encoding="utf-8"?>
<!-- Generator: Adobe Illustrator 16.0.0, SVG Export Plug-In . SVG Version: 6.00 Build 0)  -->
<!DOCTYPE svg PUBLIC "-//W3C//DTD SVG 1.0//EN" "http://www.w3.org/TR/2001/REC-SVG-20010904/DTD/svg10.dtd">
<svg version="1.0" id="Layer_1" xmlns="http://www.w3.org/2000/svg" xmlns:xlink="http://www.w3.org/1999/xlink" x="0px" y="0px"
	 width="64px" height="64px" viewBox="0 0 64 64" enable-background="new 0 0 64 64" xml:space="preserve">
<g>
	<path fill="#231F20" d="M48,0H16c-2.211,0-4,1.789-4,4v56c0,2.211,1.789,4,4,4h32c2.211,0,4-1.789,4-4V4C52,1.789,50.211,0,48,0z
		 M50,60c0,1.104-0.896,2-2,2H16c-1.104,0-2-0.896-2-2V38h36V60z M50,36H14V26h36V36z M50,24H14V14h36V24z M50,12H14V4
		c0-1.104,0.896-2,2-2h32c1.104,0,2,0.896,2,2V12z"/>
	<path fill="#231F20" d="M43,6H21c-0.553,0-1,0.447-1,1s0.447,1,1,1h22c0.553,0,1-0.447,1-1S43.553,6,43,6z"/>
	<path fill="#231F20" d="M21,20h22c0.553,0,1-0.447,1-1s-0.447-1-1-1H21c-0.553,0-1,0.447-1,1S20.447,20,21,20z"/>
	<path fill="#231F20" d="M21,32h22c0.553,0,1-0.447,1-1s-0.447-1-1-1H21c-0.553,0-1,0.447-1,1S20.447,32,21,32z"/>
	<path fill="#231F20" d="M32,58c1.657,0,3-1.344,3-3s-1.343-3-3-3s-3,1.344-3,3S30.343,58,32,58z M32,54c0.553,0,1,0.447,1,1
		s-0.447,1-1,1s-1-0.447-1-1S31.447,54,32,54z"/>
	<path fill="#231F20" d="M40,58c1.657,0,3-1.344,3-3s-1.343-3-3-3s-3,1.344-3,3S38.343,58,40,58z M40,54c0.553,0,1,0.447,1,1
		s-0.447,1-1,1s-1-0.447-1-1S39.447,54,40,54z"/>
	<path fill="#231F20" d="M24,58c1.657,0,3-1.344,3-3s-1.343-3-3-3s-3,1.344-3,3S22.343,58,24,58z M24,54c0.553,0,1,0.447,1,1
		s-0.447,1-1,1s-1-0.447-1-1S23.447,54,24,54z"/>
</g>
</svg>
