<?xml version="1.0" encoding="utf-8"?>
<!-- Generator: Adobe Illustrator 16.0.0, SVG Export Plug-In . SVG Version: 6.00 Build 0)  -->
<!DOCTYPE svg PUBLIC "-//W3C//DTD SVG 1.0//EN" "http://www.w3.org/TR/2001/REC-SVG-20010904/DTD/svg10.dtd">
<svg version="1.0" id="Layer_1" xmlns="http://www.w3.org/2000/svg" xmlns:xlink="http://www.w3.org/1999/xlink" x="0px" y="0px"
	 width="64px" height="64px" viewBox="0 0 64 64" enable-background="new 0 0 64 64" xml:space="preserve">
<g>
	<path fill="#231F20" d="M54,20H44v-8c0-6.627-5.373-12-12-12S20,5.373,20,12v8H10c-1.105,0-2,0.895-2,2v38c0,2.211,1.789,4,4,4h40
		c2.211,0,4-1.789,4-4V22C56,20.895,55.105,20,54,20z M22,12c0-5.522,4.478-10,10-10s10,4.478,10,10v12h-2V12c0-4.418-3.582-8-8-8
		s-8,3.582-8,8v12h-2V12z M38,12v8H26v-8c0-3.313,2.687-6,6-6S38,8.687,38,12z M54,60c0,1.104-0.896,2-2,2H12c-1.104,0-2-0.896-2-2
		v-2h44V60z M54,56H10V23c0-0.553,0.447-1,1-1h9v3c0,0.553,0.447,1,1,1h4c0.553,0,1-0.447,1-1v-3h12v3c0,0.553,0.447,1,1,1h4
		c0.553,0,1-0.447,1-1v-3h9c0.553,0,1,0.447,1,1V56z"/>
	<path fill="#231F20" d="M36,34c-1.104,0-2.104,0.448-2.828,1.172L32,36.336l-1.172-1.164C30.104,34.448,29.104,34,28,34
		c-2.209,0-4,1.791-4,4c0,1.104,0.713,2.136,1.438,2.859l5.855,5.856c0.391,0.391,1.023,0.391,1.414,0l5.84-5.841
		C39.271,40.151,40,39.104,40,38C40,35.791,38.209,34,36,34z M37.156,39.438L32,44.594l-5.156-5.156C26.481,39.076,26,38.553,26,38
		c0-1.104,0.896-2,2-2c0.553,0,1.053,0.224,1.414,0.586l1.879,1.871c0.391,0.391,1.023,0.391,1.414,0l1.879-1.871
		C34.947,36.224,35.447,36,36,36c1.104,0,2,0.896,2,2C38,38.553,37.519,39.076,37.156,39.438z"/>
</g>
</svg>
