<?xml version="1.0" encoding="utf-8"?>
<!-- Generator: Adobe Illustrator 16.0.0, SVG Export Plug-In . SVG Version: 6.00 Build 0)  -->
<!DOCTYPE svg PUBLIC "-//W3C//DTD SVG 1.0//EN" "http://www.w3.org/TR/2001/REC-SVG-20010904/DTD/svg10.dtd">
<svg version="1.0" id="Layer_1" xmlns="http://www.w3.org/2000/svg" xmlns:xlink="http://www.w3.org/1999/xlink" x="0px" y="0px"
	 width="64px" height="64px" viewBox="0 0 64 64" enable-background="new 0 0 64 64" xml:space="preserve">
<g>
	<path fill="#231F20" d="M59,0H5C2.789,0,1,1.789,1,4v20c0,2.22,1.208,4.152,3,5.19V60c0,2.211,1.789,4,4,4h48c2.211,0,4-1.789,4-4
		V29.19c1.792-1.038,3-2.971,3-5.19V4C63,1.789,61.211,0,59,0z M51,2v22c0,2.209-1.791,4-4,4s-4-1.791-4-4V2H51z M41,2v22
		c0,2.209-1.791,4-4,4s-4-1.791-4-4V2H41z M31,2v22c0,2.209-1.791,4-4,4s-4-1.791-4-4V2H31z M21,2v22c0,2.209-1.791,4-4,4
		s-4-1.791-4-4V2H21z M3,4c0-1.104,0.896-2,2-2h6v22c0,2.209-1.791,4-4,4s-4-1.791-4-4V4z M12,62V38h12v10h-1c-0.553,0-1,0.447-1,1
		s0.447,1,1,1h1v12H12z M58,60c0,1.104-0.896,2-2,2H26V37c0-0.516-0.447-1-1-1H11c-0.553,0-1,0.447-1,1v25H8c-1.104,0-2-0.896-2-2
		V29.91C6.326,29.965,6.658,30,7,30c2.088,0,3.926-1.068,5-2.687C13.074,28.932,14.912,30,17,30s3.926-1.068,5-2.687
		C23.074,28.932,24.912,30,27,30s3.926-1.068,5-2.687C33.074,28.932,34.912,30,37,30s3.926-1.068,5-2.687
		C43.074,28.932,44.912,30,47,30s3.926-1.068,5-2.687C53.074,28.932,54.912,30,57,30c0.342,0,0.674-0.035,1-0.09V60z M57,28
		c-2.209,0-4-1.791-4-4V2h6c1.104,0,2,0.896,2,2v20C61,26.209,59.209,28,57,28z"/>
	<path fill="#231F20" d="M53,36H29c-0.553,0-1,0.447-1,1v20c0,0.553,0.447,1,1,1h24c0.553,0,1-0.447,1-1V37
		C54,36.447,53.553,36,53,36z M52,56H30V38h22V56z"/>
	<path fill="#231F20" d="M48.293,42.707C48.488,42.902,48.744,43,49,43s0.512-0.098,0.707-0.293c0.391-0.391,0.391-1.023,0-1.414
		l-1-1c-0.391-0.391-1.023-0.391-1.414,0s-0.391,1.023,0,1.414L48.293,42.707z"/>
	<path fill="#231F20" d="M48.293,47.707C48.488,47.902,48.744,48,49,48s0.512-0.098,0.707-0.293c0.391-0.391,0.391-1.023,0-1.414
		l-6-6c-0.391-0.391-1.023-0.391-1.414,0s-0.391,1.023,0,1.414L48.293,47.707z"/>
</g>
</svg>
