<?xml version="1.0" encoding="utf-8"?>
<!-- Generator: Adobe Illustrator 16.0.0, SVG Export Plug-In . SVG Version: 6.00 Build 0)  -->
<!DOCTYPE svg PUBLIC "-//W3C//DTD SVG 1.0//EN" "http://www.w3.org/TR/2001/REC-SVG-20010904/DTD/svg10.dtd">
<svg version="1.0" id="Layer_1" xmlns="http://www.w3.org/2000/svg" xmlns:xlink="http://www.w3.org/1999/xlink" x="0px" y="0px"
	 width="64px" height="64px" viewBox="0 0 64 64" enable-background="new 0 0 64 64" xml:space="preserve">
<path fill="#231F20" d="M60,0H4C1.789,0,0,1.788,0,4v56c0,2.211,1.789,4,4,4c0,0,14,0,18,0s4.96-4.004,4.96-4.004L31,40
	c0,0,0.172-1,1-1s1,1,1,1l4.044,20.019C37.044,60.019,38,64,42,64s18,0,18,0c2.211,0,4-1.789,4-4V4C64,1.788,62.211,0,60,0z M2,9h24
	v2H2V9z M2,13h10v5c0,5.522-4.478,10-10,10V13z M62,60c0,1.103-0.897,2-2,2H42c-2.217,0-2.887-1.991-3.006-2.429l-4.029-19.944
	C34.732,38.354,33.711,37,32,37s-2.732,1.354-2.965,2.627l-4.026,19.929C24.936,59.834,24.291,62,22,62H4c-1.103,0-2-0.897-2-2V30
	c6.627,0,12-5.373,12-12v-5h12v1c0,0.552,0.447,1,1,1h10c0.553,0,1-0.448,1-1v-1h12v5c0,6.627,5.373,12,12,12V60z M28,13V7h8v6H28z
	 M62,28c-5.522,0-10-4.478-10-10v-5h10V28z M62,11H38V9h24V11z M62,7H38V6c0-0.554-0.447-1-1-1H27c-0.553,0-1,0.446-1,1v1H2V4
	c0-1.104,0.897-2,2-2h56c1.103,0,2,0.896,2,2V7z"/>
</svg>
