<?xml version="1.0" encoding="utf-8"?>
<!-- Generator: Adobe Illustrator 16.0.0, SVG Export Plug-In . SVG Version: 6.00 Build 0)  -->
<!DOCTYPE svg PUBLIC "-//W3C//DTD SVG 1.0//EN" "http://www.w3.org/TR/2001/REC-SVG-20010904/DTD/svg10.dtd">
<svg version="1.0" id="Layer_1" xmlns="http://www.w3.org/2000/svg" xmlns:xlink="http://www.w3.org/1999/xlink" x="0px" y="0px"
	 width="64px" height="64px" viewBox="0 0 64 64" enable-background="new 0 0 64 64" xml:space="preserve">
<g>
	<path fill="#231F20" d="M61,29H49c-1.657,0-3,1.344-3,3s1.343,3,3,3h12c1.657,0,3-1.344,3-3S62.657,29,61,29z M61,33H49
		c-0.553,0-1-0.447-1-1s0.447-1,1-1h12c0.553,0,1,0.447,1,1S61.553,33,61,33z"/>
	<path fill="#231F20" d="M59.312,44.57l-11.275-4.104c-1.559-0.566-3.279,0.236-3.846,1.793c-0.566,1.555,0.235,3.277,1.793,3.844
		l11.276,4.105c1.558,0.566,3.278-0.238,3.845-1.793C61.672,46.859,60.87,45.137,59.312,44.57z M59.227,47.732
		c-0.189,0.52-0.763,0.785-1.281,0.598l-11.277-4.105c-0.52-0.189-0.786-0.762-0.598-1.281c0.189-0.52,0.763-0.787,1.282-0.598
		l11.276,4.104C59.148,46.639,59.416,47.213,59.227,47.732z"/>
	<path fill="#231F20" d="M48.036,23.531l11.276-4.104c1.557-0.566,2.359-2.289,1.793-3.844c-0.566-1.557-2.288-2.361-3.846-1.795
		l-11.275,4.105c-1.559,0.566-2.36,2.289-1.794,3.846C44.757,23.295,46.479,24.098,48.036,23.531z M46.668,19.773l11.276-4.105
		c0.519-0.188,1.093,0.08,1.281,0.6c0.189,0.52-0.078,1.092-0.597,1.281l-11.277,4.104c-0.52,0.189-1.093-0.078-1.281-0.598
		C45.881,20.535,46.148,19.963,46.668,19.773z"/>
	<path fill="#231F20" d="M37.531,0.307c-1.492-0.625-3.211-0.277-4.359,0.867L18.859,15.486c0,0-0.422,0.514-1.359,0.514
		C16.293,16,4,16.002,4,16.002c-2.211,0-4,1.789-4,4V44c0,2.211,1.789,4,4,4c0,0,12.688,0,13.344,0s1.107,0.107,1.671,0.67
		c0.563,0.564,14.157,14.158,14.157,14.158C33.938,63.594,34.961,64,36,64c0.516,0,1.035-0.098,1.531-0.305
		C39.027,63.078,40,61.617,40,60V4.002C40,2.385,39.027,0.924,37.531,0.307z M6,46H4c-1.104,0-2-0.896-2-2V20c0-1.105,0.896-2,2-2h2
		V46z M12,46H8V18h4V46z M38,60c0,2-2.188,2.812-4,1c-1.109-1.109-14-14-14-14c-0.75-0.75-1.437-1-2.499-1H14V18h3.501
		C18.563,18,19,18,20,17c0,0,12.766-12.766,14-14c1.781-1.782,4-0.97,4,1C38,5.062,38,58.938,38,60z"/>
</g>
</svg>
