<?xml version="1.0" encoding="utf-8"?>
<!-- Generator: Adobe Illustrator 16.0.0, SVG Export Plug-In . SVG Version: 6.00 Build 0)  -->
<!DOCTYPE svg PUBLIC "-//W3C//DTD SVG 1.0//EN" "http://www.w3.org/TR/2001/REC-SVG-20010904/DTD/svg10.dtd">
<svg version="1.0" id="Layer_1" xmlns="http://www.w3.org/2000/svg" xmlns:xlink="http://www.w3.org/1999/xlink" x="0px" y="0px"
	 width="64px" height="64px" viewBox="0 0 64 64" enable-background="new 0 0 64 64" xml:space="preserve">
<g>
	<path d="M61.657,50.343l-2.093-2.093C62.379,43.486,64,37.934,64,32c0-5.935-1.621-11.488-4.437-16.252l2.093-2.092
		c3.124-3.124,3.125-8.189,0.001-11.313s-8.19-3.124-11.314,0L48.25,4.436C43.486,1.621,37.934,0,32,0
		c-5.935,0-11.487,1.621-16.252,4.436l-2.092-2.092C10.532-0.78,5.467-0.781,2.343,2.343s-3.124,8.19,0,11.314l2.093,2.093
		C1.621,20.514,0,26.066,0,32c0,5.935,1.621,11.488,4.437,16.252l-2.093,2.092c-3.124,3.124-3.125,8.189-0.001,11.313
		s8.19,3.124,11.314,0l2.093-2.093C20.514,62.379,26.066,64,32,64c5.935,0,11.487-1.621,16.252-4.436l2.092,2.092
		c3.124,3.124,8.189,3.125,11.313,0.001S64.781,53.467,61.657,50.343z M60.242,60.243c-2.342,2.342-6.141,2.342-8.484-0.001
		c0,0-0.631-0.631-1.773-1.773s-1.96-1.2-3.197-0.369C42.422,60.578,37.379,62,32,62c-5.378,0-10.406-1.447-14.786-3.9
		c-1.965-1.1-2.257-0.57-3.197,0.37s-1.773,1.773-1.773,1.773c-2.344,2.343-6.143,2.343-8.486-0.001
		c-2.342-2.342-2.342-6.141,0.001-8.484c0,0,0.921-0.921,1.773-1.773s1.449-1.464,0.37-3.197C3.419,42.424,2,37.379,2,32
		c0-5.377,1.422-10.421,3.9-14.785c0.889-1.691,0.758-2.07-0.37-3.198s-1.773-1.773-1.773-1.773
		C1.414,9.899,1.414,6.101,3.758,3.757C6.1,1.416,9.898,1.416,12.242,3.758c0,0,0.631,0.631,1.773,1.773s1.96,1.2,3.197,0.369
		C21.578,3.422,26.621,2,32,2c5.378,0,10.406,1.447,14.786,3.9c1.965,1.101,2.257,0.57,3.197-0.37s1.773-1.773,1.773-1.773
		c2.344-2.343,6.143-2.343,8.486,0.001c2.342,2.342,2.342,6.141-0.001,8.484c0,0-0.921,0.921-1.773,1.773s-1.449,1.464-0.37,3.197
		C60.581,21.576,62,26.621,62,32c0,5.378-1.422,10.421-3.9,14.785c-0.889,1.691-0.758,2.07,0.37,3.198s1.773,1.773,1.773,1.773
		C62.586,54.101,62.586,57.899,60.242,60.243z"/>
	<path d="M56,53c-1.657,0-3,1.344-3,3s1.343,3,3,3s3-1.344,3-3S57.657,53,56,53z M56,57c-0.553,0-1-0.447-1-1s0.447-1,1-1
		s1,0.447,1,1S56.553,57,56,57z"/>
	<path d="M8,53c-1.657,0-3,1.344-3,3s1.343,3,3,3s3-1.344,3-3S9.657,53,8,53z M8,57c-0.553,0-1-0.447-1-1s0.447-1,1-1s1,0.447,1,1
		S8.553,57,8,57z"/>
	<path d="M56,11c1.657,0,3-1.344,3-3s-1.343-3-3-3s-3,1.344-3,3S54.343,11,56,11z M56,7c0.553,0,1,0.447,1,1s-0.447,1-1,1
		s-1-0.447-1-1S55.447,7,56,7z"/>
	<path d="M8,5C6.343,5,5,6.344,5,8s1.343,3,3,3s3-1.344,3-3S9.657,5,8,5z M8,9C7.447,9,7,8.553,7,8s0.447-1,1-1s1,0.447,1,1
		S8.553,9,8,9z"/>
	<path d="M32,12c-11.046,0-20,8.954-20,20s8.954,20,20,20s20-8.954,20-20S43.046,12,32,12z M32,50c-9.941,0-18-8.059-18-18
		s8.059-18,18-18s18,8.059,18,18S41.941,50,32,50z"/>
	<path d="M32,26c-3.313,0-6,2.687-6,6s2.687,6,6,6s6-2.687,6-6S35.313,26,32,26z M32,36c-2.209,0-4-1.791-4-4s1.791-4,4-4
		s4,1.791,4,4S34.209,36,32,36z"/>
</g>
</svg>
