<?xml version="1.0" encoding="utf-8"?>
<!-- Generator: Adobe Illustrator 16.0.0, SVG Export Plug-In . SVG Version: 6.00 Build 0)  -->
<!DOCTYPE svg PUBLIC "-//W3C//DTD SVG 1.0//EN" "http://www.w3.org/TR/2001/REC-SVG-20010904/DTD/svg10.dtd">
<svg version="1.0" id="Layer_1" xmlns="http://www.w3.org/2000/svg" xmlns:xlink="http://www.w3.org/1999/xlink" x="0px" y="0px"
	 width="64px" height="64px" viewBox="0 0 64 64" enable-background="new 0 0 64 64" xml:space="preserve">
<g>
	<path fill="#231F20" d="M60,0H44.501c-2,0-2.395,1.384-2.725,2.024C39.952,5.57,36.264,8,32,8c-4.271,0-7.968-2.438-9.787-5.996
		C21.888,1.368,21.46,0,19.501,0H4C1.789,0,0,1.788,0,4v14c0,2.211,1.789,4,4,4h8v38c0,2.211,1.789,4,4,4h32c2.211,0,4-1.789,4-4V22
		h8c2.211,0,4-1.789,4-4V4C64,1.788,62.211,0,60,0z M4,20c-1.103,0-2-0.897-2-2V4c0-1.104,0.897-2,2-2h2v18H4z M50,60
		c0,1.103-0.897,2-2,2H16c-1.103,0-2-0.897-2-2v-2h36V60z M52,20c-1.104,0-2,0.895-2,2v34H14V22c0-1.105-0.896-2-2-2H8V2h11.014
		c0.986,0,1.293,0.663,1.46,0.984C22.638,7.15,26.981,10,32,10c5.02,0,9.365-2.852,11.527-7.018C43.693,2.662,44,2,44.986,2H56v18
		H52z M62,18c0,1.103-0.897,2-2,2h-2V2h2c1.103,0,2,0.896,2,2V18z"/>
	<path fill="#231F20" d="M36,20c-1.104,0-2.104,0.447-2.828,1.171L32,22.336l-1.172-1.165C30.104,20.447,29.104,20,28,20
		c-2.209,0-4,1.79-4,4c0,1.104,0.713,2.135,1.438,2.858l5.855,5.856c0.391,0.391,1.023,0.391,1.414,0l5.84-5.84
		C39.271,26.15,40,25.104,40,24C40,21.79,38.209,20,36,20z M37.156,25.437L32,30.593l-5.156-5.156C26.481,25.075,26,24.552,26,24
		c0-1.105,0.896-2,2-2c0.553,0,1.053,0.223,1.414,0.586l1.879,1.87c0.391,0.391,1.023,0.391,1.414,0l1.879-1.87
		C34.947,22.223,35.447,22,36,22c1.104,0,2,0.895,2,2C38,24.552,37.519,25.075,37.156,25.437z"/>
</g>
</svg>
