<?xml version="1.0" encoding="utf-8"?>
<!-- Generator: Adobe Illustrator 16.0.0, SVG Export Plug-In . SVG Version: 6.00 Build 0)  -->
<!DOCTYPE svg PUBLIC "-//W3C//DTD SVG 1.0//EN" "http://www.w3.org/TR/2001/REC-SVG-20010904/DTD/svg10.dtd">
<svg version="1.0" id="Layer_1" xmlns="http://www.w3.org/2000/svg" xmlns:xlink="http://www.w3.org/1999/xlink" x="0px" y="0px"
	 width="64px" height="64px" viewBox="0 0 64 64" enable-background="new 0 0 64 64" xml:space="preserve">
<g>
	<path fill="#231F20" d="M63,57.998H13c-0.553,0-1,0.447-1,1V60c0,2.208,1.791,4,4,4v-0.002h44V64c2.209,0,4-1.792,4-4v-1.002
		C64,58.445,63.553,57.998,63,57.998z M62,60c0,1.104-0.896,2-2,2v-0.002H16V62c-1.104,0-2-0.896-2-2v-0.002h48V60z"/>
	<path fill="#231F20" d="M62,17.998H13h-1H4c-2.209,0-4,1.791-4,4v8L0.009,30H0c0.001,6.625,5.373,11.998,12,11.998h2.938
		c4.336,8.316,13.033,14,23.062,14c14.359,0,26-11.642,26-26v-10C64,18.894,63.104,17.998,62,17.998z M12.704,35.998H12
		c-3.313,0-5.999-2.686-6-5.998v-6.002h6v6C12,32.064,12.248,34.071,12.704,35.998z M12,39.998c-5.522,0-9.999-4.477-10-9.998
		v-8.002c0-1.104,0.896-2,2-2h8v2H5c-0.553,0-1,0.447-1,1v7L4.01,30H4c0.001,4.416,3.582,7.998,8,7.998h1.26
		c0.22,0.679,0.464,1.347,0.736,2H12z M62,29.998c0,13.256-10.745,24-24,24c-10.871,0-20.049-7.23-23-17.143l-0.243-0.857
		c-0.494-1.918-0.757-3.929-0.757-6v-10h36v8.586l-3.707,3.707C46.105,32.479,46,32.732,46,32.998v8c0,0.553,0.447,1,1,1h8
		c0.553,0,1-0.447,1-1v-8c0-0.266-0.105-0.52-0.293-0.707L52,28.584v-8.586h9.005c0.551,0.004,0.995,0.448,0.995,1V29.998z
		 M51,30.412l3,3v6.586h-6v-6.586L51,30.412z"/>
	<path fill="#231F20" d="M38,9.498c0,1.887-1.025,2.646-1.055,2.668c-0.46,0.307-0.584,0.927-0.277,1.387
		c0.192,0.289,0.51,0.445,0.833,0.445c0.19,0,0.383-0.055,0.554-0.168C38.134,13.777,40,12.5,40,9.498
		c0-1.6-0.675-2.439-1.218-3.115C38.328,5.817,38,5.409,38,4.498c0-1.842,1.017-2.638,1.081-2.687
		c0.444-0.317,0.553-0.933,0.24-1.384c-0.315-0.454-0.938-0.566-1.392-0.251C37.851,0.231,36,1.551,36,4.498
		c0,1.614,0.679,2.459,1.224,3.138C37.691,8.218,38,8.603,38,9.498z"/>
	<path fill="#231F20" d="M50,9.498c0,1.887-1.025,2.646-1.055,2.668c-0.46,0.307-0.584,0.927-0.277,1.387
		c0.192,0.289,0.51,0.445,0.833,0.445c0.19,0,0.383-0.055,0.554-0.168C50.134,13.777,52,12.5,52,9.498
		c0-1.6-0.675-2.439-1.218-3.115C50.328,5.817,50,5.409,50,4.498c0-1.842,1.017-2.638,1.081-2.687
		c0.444-0.317,0.553-0.933,0.24-1.384c-0.315-0.454-0.938-0.566-1.392-0.251C49.851,0.231,48,1.551,48,4.498
		c0,1.614,0.679,2.459,1.224,3.138C49.691,8.218,50,8.603,50,9.498z"/>
	<path fill="#231F20" d="M26,9.498c0,1.887-1.025,2.646-1.055,2.668c-0.46,0.307-0.584,0.927-0.277,1.387
		c0.192,0.289,0.51,0.445,0.833,0.445c0.19,0,0.383-0.055,0.554-0.168C26.134,13.777,28,12.5,28,9.498
		c0-1.6-0.675-2.439-1.218-3.115C26.328,5.817,26,5.409,26,4.498c0-1.842,1.017-2.638,1.081-2.687
		c0.444-0.317,0.553-0.933,0.24-1.384c-0.315-0.454-0.938-0.566-1.392-0.251C25.851,0.231,24,1.551,24,4.498
		c0,1.614,0.679,2.459,1.224,3.138C25.691,8.218,26,8.603,26,9.498z"/>
</g>
</svg>
