<?xml version="1.0" encoding="utf-8"?>
<!-- Generator: Adobe Illustrator 16.0.0, SVG Export Plug-In . SVG Version: 6.00 Build 0)  -->
<!DOCTYPE svg PUBLIC "-//W3C//DTD SVG 1.0//EN" "http://www.w3.org/TR/2001/REC-SVG-20010904/DTD/svg10.dtd">
<svg version="1.0" id="Layer_1" xmlns="http://www.w3.org/2000/svg" xmlns:xlink="http://www.w3.org/1999/xlink" x="0px" y="0px"
	 width="64px" height="64px" viewBox="0 0 64 64" enable-background="new 0 0 64 64" xml:space="preserve">
<g>
	<path fill="#231F20" d="M56,4H40c0-2.211-1.789-4-4-4h-8c-2.211,0-4,1.789-4,4H8C5.789,4,4,5.789,4,8v5c0,0.553,0.447,1,1,1h2v46
		c0,2.211,1.789,4,4,4h42c2.211,0,4-1.789,4-4V14h2c0.553,0,1-0.447,1-1V8C60,5.789,58.211,4,56,4z M28,2h8c1.104,0,2,0.896,2,2H26
		C26,2.896,26.896,2,28,2z M55,60c0,1.104-0.896,2-2,2H11c-1.104,0-2-0.896-2-2V14h46V60z M58,12H6V8c0-1.104,0.896-2,2-2h48
		c1.104,0,2,0.896,2,2V12z"/>
	<path fill="#231F20" d="M20,54c1.657,0,3-1.343,3-3V25c0-1.657-1.343-3-3-3s-3,1.343-3,3v26C17,52.657,18.343,54,20,54z M19,25
		c0-0.553,0.447-1,1-1s1,0.447,1,1v26c0,0.553-0.447,1-1,1s-1-0.447-1-1V25z"/>
	<path fill="#231F20" d="M32,54c1.657,0,3-1.343,3-3V25c0-1.657-1.343-3-3-3s-3,1.343-3,3v26C29,52.657,30.343,54,32,54z M31,25
		c0-0.553,0.447-1,1-1s1,0.447,1,1v26c0,0.553-0.447,1-1,1s-1-0.447-1-1V25z"/>
	<path fill="#231F20" d="M44,54c1.657,0,3-1.343,3-3V25c0-1.657-1.343-3-3-3s-3,1.343-3,3v26C41,52.657,42.343,54,44,54z M43,25
		c0-0.553,0.447-1,1-1s1,0.447,1,1v26c0,0.553-0.447,1-1,1s-1-0.447-1-1V25z"/>
</g>
</svg>
