<?xml version="1.0" encoding="utf-8"?>
<!-- Generator: Adobe Illustrator 16.0.0, SVG Export Plug-In . SVG Version: 6.00 Build 0)  -->
<!DOCTYPE svg PUBLIC "-//W3C//DTD SVG 1.0//EN" "http://www.w3.org/TR/2001/REC-SVG-20010904/DTD/svg10.dtd">
<svg version="1.0" id="Layer_1" xmlns="http://www.w3.org/2000/svg" xmlns:xlink="http://www.w3.org/1999/xlink" x="0px" y="0px"
	 width="64px" height="64px" viewBox="0 0 64 64" enable-background="new 0 0 64 64" xml:space="preserve">
<path fill="#231F20" d="M47.231,20.893C47.727,19.35,48,17.707,48,16c0-8.836-7.163-16-16-16S16,7.164,16,16
	c0,1.707,0.273,3.35,0.769,4.893C10.505,23.062,6,28.998,6,36c0,8.836,7.163,16,16,16c2.125,0,4.146-0.43,6-1.184V63
	c0,0.553,0.447,1,1,1h6c0.553,0,1-0.447,1-1V50.816C37.854,51.57,39.875,52,42,52c8.837,0,16-7.164,16-16
	C58,28.998,53.495,23.062,47.231,20.893z M34,62h-4V49.842c0.7-0.407,1.371-0.859,2-1.363c0.629,0.504,1.3,0.956,2,1.363V62z M42,50
	c-2.913,0-5.613-0.895-7.853-2.418L40.73,41H45c0.553,0,1-0.447,1-1s-0.447-1-1-1h-4v-4c0-0.553-0.447-1-1-1s-1,0.447-1,1v4.898
	l-6,6.001V45V33.414l3.718-3.718c0.391-0.391,0.392-1.024,0.001-1.415s-1.038-0.376-1.429,0.015L32,31.586l-3.332-3.332
	c-0.391-0.391-0.934-0.301-1.324,0.09c-0.392,0.392-0.435,0.981-0.044,1.372l3.7,3.7V45v0.898l-6-5.997V35c0-0.553-0.447-1-1-1
	s-1,0.447-1,1v4h-4c-0.553,0-1,0.447-1,1s0.447,1,1,1h4.27l6.583,6.582C27.613,49.105,24.913,50,22,50c-7.732,0-14-6.268-14-14
	c0-6.871,4.952-12.573,11.48-13.762C18.541,20.358,18,18.244,18,16c0-7.732,6.268-14,14-14s14,6.268,14,14
	c0,2.244-0.541,4.358-1.48,6.238C51.048,23.427,56,29.129,56,36C56,43.732,49.732,50,42,50z"/>
</svg>
