<?xml version="1.0" encoding="utf-8"?>
<!-- Generator: Adobe Illustrator 16.0.0, SVG Export Plug-In . SVG Version: 6.00 Build 0)  -->
<!DOCTYPE svg PUBLIC "-//W3C//DTD SVG 1.0//EN" "http://www.w3.org/TR/2001/REC-SVG-20010904/DTD/svg10.dtd">
<svg version="1.0" id="Layer_1" xmlns="http://www.w3.org/2000/svg" xmlns:xlink="http://www.w3.org/1999/xlink" x="0px" y="0px"
	 width="64px" height="64px" viewBox="0 0 64 64" enable-background="new 0 0 64 64" xml:space="preserve">
<path fill="#231F20" d="M57.414,48.586L48.828,40H52c0.809,0,1.538-0.487,1.848-1.234c0.31-0.748,0.139-1.607-0.434-2.18L44.828,28
	H48c0.809,0,1.538-0.487,1.848-1.234c0.31-0.748,0.139-1.607-0.434-2.18L40.828,16H44c0.809,0,1.538-0.487,1.848-1.234
	c0.31-0.748,0.139-1.607-0.434-2.18l-12-12C33.023,0.195,32.512,0,32,0s-1.023,0.195-1.414,0.586l-12,12
	c-0.572,0.572-0.743,1.432-0.434,2.18C18.462,15.513,19.191,16,20,16h3.172l-8.586,8.586c-0.572,0.572-0.743,1.432-0.434,2.18
	C14.462,27.513,15.191,28,16,28h3.172l-8.586,8.586c-0.572,0.572-0.743,1.432-0.434,2.18C10.462,39.513,11.191,40,12,40h3.172
	l-8.586,8.586c-0.572,0.572-0.743,1.432-0.434,2.18C6.462,51.513,7.191,52,8,52h20v11c0,0.553,0.447,1,1,1h6c0.553,0,1-0.447,1-1V52
	h20c0.809,0,1.538-0.487,1.848-1.234C58.157,50.018,57.986,49.158,57.414,48.586z M21,14c-0.547,0-0.789-0.211,0-1
	c0.641-0.641,9-9,10-10s1-1,2,0c0,0,9.303,9.305,9.999,10s0.61,1,0.001,1C42.679,14,21.127,14,21,14z M17,26
	c-0.547,0-0.766-0.234,0-1c0.444-0.444,5.951-5.951,9-9h12c3.001,3,8.384,8.384,9,9c0.859,0.859,0.469,1,0,1
	C46.75,26,17.127,26,17,26z M13,38c-0.609,0-0.773-0.227,0-1c0.461-0.461,5.956-5.955,9-9h20c3.07,3.07,8.634,8.634,9,9
	c0.648,0.648,0.656,1,0,1C50.479,38,13.135,38,13,38z M34,62h-4V52h4V62z M55,50c-1,0-45.297,0-46,0c-0.484,0-0.797-0.203,0-1
	c0.478-0.478,5.96-5.961,9-9h28c3.065,3.065,8.614,8.615,9.002,9.002C55.695,49.695,55.578,50,55,50z"/>
</svg>
