<?xml version="1.0" encoding="utf-8"?>
<!-- Generator: Adobe Illustrator 16.0.0, SVG Export Plug-In . SVG Version: 6.00 Build 0)  -->
<!DOCTYPE svg PUBLIC "-//W3C//DTD SVG 1.0//EN" "http://www.w3.org/TR/2001/REC-SVG-20010904/DTD/svg10.dtd">
<svg version="1.0" id="Layer_1" xmlns="http://www.w3.org/2000/svg" xmlns:xlink="http://www.w3.org/1999/xlink" x="0px" y="0px"
	 width="64px" height="64px" viewBox="0 0 64 64" enable-background="new 0 0 64 64" xml:space="preserve">
<path fill="#231F20" d="M35,4.145V3.002V3c0-1.656-1.343-3-3-3s-3,1.344-3,3v0.002v1.143C12.734,5.658,0,19.338,0,36c0,0,0,1,1,1
	s1.867-1,1.867-1c1.813-1.85,4.337-3,7.133-3c4.1,0,7.618,2.47,9.162,6c0,0,0.541,1,1.838,1s1.838-1,1.838-1
	c1.15-2.629,3.396-4.668,6.162-5.539V56c0,4.418,3.582,8,8,8s8-3.582,8-8c0-1.656-1.343-3-3-3s-3,1.344-3,3c0,1.104-0.896,2-2,2
	s-2-0.896-2-2V33.461c2.766,0.871,5.012,2.91,6.162,5.539c0,0,0.541,1,1.838,1s1.838-1,1.838-1c1.544-3.53,5.062-6,9.162-6
	c2.796,0,5.319,1.15,7.133,3c0,0,0.867,1,1.867,1s1-1,1-1C64,19.338,51.266,5.658,35,4.145z M31,3c0-0.553,0.447-1,1-1s1,0.447,1,1
	v1.025C32.667,4.016,32.335,4,32,4s-0.667,0.016-1,0.025V3z M10,31c-3.047,0-5.816,1.145-7.928,3.018
	C3.006,19.729,13.94,8.171,27.947,6.277C22.911,14.678,20,24.493,20,35v1.388C17.853,33.145,14.181,31,10,31z M37,60
	c2.209,0,4-1.791,4-4c0-0.553,0.447-1,1-1s1,0.447,1,1c0,3.313-2.687,6-6,6s-6-2.687-6-6V33.056C31.329,33.023,31.662,33,32,33
	s0.671,0.023,1,0.056V56C33,58.209,34.791,60,37,60z M32,31c-4.181,0-7.853,2.145-10,5.388V35c0-10.662,3.113-20.588,8.449-28.959
	c0.5-0.025,1.004-0.039,1.511-0.039h0.08c0.507,0,1.011,0.014,1.511,0.039C38.887,14.412,42,24.338,42,35v1.388
	C39.853,33.145,36.181,31,32,31z M54,31c-4.181,0-7.853,2.145-10,5.388V35c0-10.507-2.911-20.322-7.947-28.723
	c14.007,1.894,24.941,13.451,25.875,27.74C59.816,32.145,57.047,31,54,31z"/>
</svg>
