<?xml version="1.0" encoding="utf-8"?>
<!-- Generator: Adobe Illustrator 16.0.0, SVG Export Plug-In . SVG Version: 6.00 Build 0)  -->
<!DOCTYPE svg PUBLIC "-//W3C//DTD SVG 1.0//EN" "http://www.w3.org/TR/2001/REC-SVG-20010904/DTD/svg10.dtd">
<svg version="1.0" id="Layer_1" xmlns="http://www.w3.org/2000/svg" xmlns:xlink="http://www.w3.org/1999/xlink" x="0px" y="0px"
	 width="64px" height="64px" viewBox="0 0 64 64" enable-background="new 0 0 64 64" xml:space="preserve">
<g>
	<path fill="#231F20" d="M62,32h-2V16c0-2.211-1.789-4-4-4V8c0-1.343-0.405-2.385-1.206-3.099c-1.186-1.058-2.735-0.91-2.896-0.896
		c-0.073,0.007-1.485,0.152-3.789,0.39l-0.641-1.761c-0.757-2.078-3.05-3.147-5.127-2.391L24.13,6.871
		C15.534,7.764,7.396,8.616,3.89,9.006C0.95,9.332,0.062,12.908,0,14.97c0,0.011,0.005,0.021,0.006,0.031H0V60c0,2.211,1.789,4,4,4
		h52c2.211,0,4-1.789,4-4V44h2c1.105,0,2-0.895,2-2v-8C64,32.895,63.105,32,62,32z M52.114,5.993c0.006,0.001,0.82-0.07,1.349,0.4
		C53.819,6.712,54,7.253,54,8v4h-3.122l-2.063-5.668C50.815,6.128,52.045,6,52.114,5.993z M43.025,2.122
		c1.038-0.378,2.186,0.157,2.563,1.195L48.749,12h-6.098C41.826,9.672,39.611,8,37,8s-4.826,1.672-5.651,4H15.885L43.025,2.122z
		 M40.445,12h-6.891c0.693-1.19,1.969-2,3.445-2S39.752,10.81,40.445,12z M4.11,10.994c2.385-0.266,6.921-0.745,12.278-1.306
		L10.038,12H4c-0.474,0-0.922,0.097-1.343,0.247C2.972,11.599,3.432,11.069,4.11,10.994z M58,60c0,1.104-0.896,2-2,2H4
		c-1.104,0-2-0.896-2-2V16c0-1.104,0.896-2,2-2h52c1.104,0,2,0.896,2,2v16H42c-1.105,0-2,0.895-2,2v8c0,1.105,0.895,2,2,2h16V60z
		 M62,41c0,0.553-0.447,1-1,1H43c-0.553,0-1-0.447-1-1v-6c0-0.553,0.447-1,1-1h18c0.553,0,1,0.447,1,1V41z"/>
	<circle fill="#231F20" cx="46" cy="38" r="2"/>
	<path fill="#231F20" d="M53,20h2c0.553,0,1-0.447,1-1s-0.447-1-1-1h-2c-0.553,0-1,0.447-1,1S52.447,20,53,20z"/>
	<path fill="#231F20" d="M47,20h2c0.553,0,1-0.447,1-1s-0.447-1-1-1h-2c-0.553,0-1,0.447-1,1S46.447,20,47,20z"/>
	<path fill="#231F20" d="M41,20h2c0.553,0,1-0.447,1-1s-0.447-1-1-1h-2c-0.553,0-1,0.447-1,1S40.447,20,41,20z"/>
	<path fill="#231F20" d="M37,18h-2c-0.553,0-1,0.447-1,1s0.447,1,1,1h2c0.553,0,1-0.447,1-1S37.553,18,37,18z"/>
	<path fill="#231F20" d="M31,18h-2c-0.553,0-1,0.447-1,1s0.447,1,1,1h2c0.553,0,1-0.447,1-1S31.553,18,31,18z"/>
	<path fill="#231F20" d="M25,18h-2c-0.553,0-1,0.447-1,1s0.447,1,1,1h2c0.553,0,1-0.447,1-1S25.553,18,25,18z"/>
	<path fill="#231F20" d="M19,18h-2c-0.553,0-1,0.447-1,1s0.447,1,1,1h2c0.553,0,1-0.447,1-1S19.553,18,19,18z"/>
	<path fill="#231F20" d="M13,18h-2c-0.553,0-1,0.447-1,1s0.447,1,1,1h2c0.553,0,1-0.447,1-1S13.553,18,13,18z"/>
	<path fill="#231F20" d="M7,18H5c-0.553,0-1,0.447-1,1s0.447,1,1,1h2c0.553,0,1-0.447,1-1S7.553,18,7,18z"/>
	<path fill="#231F20" d="M53,58h2c0.553,0,1-0.447,1-1s-0.447-1-1-1h-2c-0.553,0-1,0.447-1,1S52.447,58,53,58z"/>
	<path fill="#231F20" d="M47,58h2c0.553,0,1-0.447,1-1s-0.447-1-1-1h-2c-0.553,0-1,0.447-1,1S46.447,58,47,58z"/>
	<path fill="#231F20" d="M40,57c0,0.553,0.447,1,1,1h2c0.553,0,1-0.447,1-1s-0.447-1-1-1h-2C40.447,56,40,56.447,40,57z"/>
	<path fill="#231F20" d="M37,56h-2c-0.553,0-1,0.447-1,1s0.447,1,1,1h2c0.553,0,1-0.447,1-1S37.553,56,37,56z"/>
	<path fill="#231F20" d="M31,56h-2c-0.553,0-1,0.447-1,1s0.447,1,1,1h2c0.553,0,1-0.447,1-1S31.553,56,31,56z"/>
	<path fill="#231F20" d="M25,56h-2c-0.553,0-1,0.447-1,1s0.447,1,1,1h2c0.553,0,1-0.447,1-1S25.553,56,25,56z"/>
	<path fill="#231F20" d="M19,56h-2c-0.553,0-1,0.447-1,1s0.447,1,1,1h2c0.553,0,1-0.447,1-1S19.553,56,19,56z"/>
	<path fill="#231F20" d="M13,56h-2c-0.553,0-1,0.447-1,1s0.447,1,1,1h2c0.553,0,1-0.447,1-1S13.553,56,13,56z"/>
	<path fill="#231F20" d="M7,56H5c-0.553,0-1,0.447-1,1s0.447,1,1,1h2c0.553,0,1-0.447,1-1S7.553,56,7,56z"/>
</g>
</svg>
