<?xml version="1.0" encoding="utf-8"?>
<!-- Generator: Adobe Illustrator 16.0.0, SVG Export Plug-In . SVG Version: 6.00 Build 0)  -->
<!DOCTYPE svg PUBLIC "-//W3C//DTD SVG 1.0//EN" "http://www.w3.org/TR/2001/REC-SVG-20010904/DTD/svg10.dtd">
<svg version="1.0" id="Layer_1" xmlns="http://www.w3.org/2000/svg" xmlns:xlink="http://www.w3.org/1999/xlink" x="0px" y="0px"
	 width="64px" height="64px" viewBox="0 0 64 64" enable-background="new 0 0 64 64" xml:space="preserve">
<g>
	<path fill="#231F20" d="M8,53c-1.656,0-3,1.344-3,3s1.344,3,3,3s3-1.344,3-3S9.657,53,8,53z M8,57c-0.553,0-1-0.447-1-1
		s0.447-1,1-1s1,0.447,1,1S8.553,57,8,57z"/>
	<path fill="#231F20" d="M63.652,14.49c-0.277-1.584-1.283-1.544-2.209-0.618s-9.787,9.786-9.787,9.786
		c-3.123,3.123-8.189,3.123-11.312-0.001c-3.125-3.124-3.125-8.188,0-11.313c0,0,8.963-8.963,9.787-9.786
		c0.822-0.823,0.9-1.901-0.621-2.21C48.375,0.117,47.201,0,46,0c-9.941,0-18,8.06-18,18c0,2.008,0.344,3.933,0.949,5.736
		L2.342,50.344c-3.123,3.123-3.123,8.189,0.001,11.313s8.19,3.124,11.313,0.001l26.607-26.607C42.068,35.657,43.992,36,46,36
		c9.941,0,18-8.06,18-18C64,16.799,63.852,15.631,63.652,14.49z M12.243,60.244c-2.342,2.342-6.143,2.342-8.485-0.001
		s-2.343-6.142,0.001-8.485l7.793-7.793l8.486,8.485L12.243,60.244z M21.451,51.036l-8.486-8.485l16.806-16.806
		c1.773,3.71,4.773,6.711,8.484,8.485L21.451,51.036z M46,34c-8.836,0-16-7.164-16-16S37.164,2,46,2c0.594,0,1.18,0.038,1.758,0.102
		l-8.83,8.828c-3.904,3.904-3.904,10.236,0,14.143c3.906,3.906,10.238,3.904,14.143,0l8.83-8.828C61.963,16.82,62,17.406,62,18
		C62,26.836,54.838,34,46,34z"/>
</g>
</svg>
